<svg width="17" height="11" viewBox="0 0 17 11" fill="none" xmlns="http://www.w3.org/2000/svg">
<path d="M1.37172 4.34758H14.3034L11.2177 1.20355C10.9474 0.928296 10.9474 0.481779 11.2177 0.206564C11.4881 -0.0688547 11.9263 -0.0688547 12.1962 0.206564L16.4633 4.55406C16.7336 4.82931 16.7336 5.27587 16.4633 5.55105L12.1962 9.89874C12.0611 10.0365 11.884 10.1053 11.707 10.1053C11.5299 10.1053 11.3528 10.0365 11.2177 9.89874C10.9474 9.62349 10.9474 9.17697 11.2177 8.90179L14.3034 5.75761H1.37172C0.989571 5.75761 0.679679 5.44192 0.679679 5.05257C0.679679 4.66322 0.989531 4.34758 1.37172 4.34758Z" fill="black"/>
</svg>
