<svg width="100" height="100" viewBox="0 0 100 100" fill="none" xmlns="http://www.w3.org/2000/svg">
<ellipse cx="50.0003" cy="50" rx="49.9573" ry="50" fill="white"/>
<path d="M70.4726 38.2791C71.1355 33.1771 68.9111 28.5236 64.5293 25.8359C64.1272 25.5852 63.7084 25.3461 63.2843 25.1145C56.5441 21.4326 48.4975 20.7066 41.2081 23.1216C33.8197 25.5691 27.948 30.8333 24.674 37.9435C18.8603 50.5808 23.3587 65.6925 35.1373 73.0943C35.6345 73.4071 36.1383 73.703 36.6439 73.9792C37.0084 74.1783 37.3738 74.3663 37.7371 74.5441C42.3559 76.8091 47.6602 76.1739 51.5787 72.8864C55.6972 69.4308 57.3207 64.0304 55.8152 58.7916C55.8152 58.7916 55.8152 58.7916 55.8147 58.79C55.1587 56.5157 55.2737 54.5412 56.1562 52.9228C57.0361 51.3094 58.6314 50.1475 60.899 49.4689C66.1096 47.9065 69.7779 43.6192 70.4726 38.2791ZM54.1221 51.8117C52.9527 53.9559 52.7684 56.5918 53.5888 59.4346C54.8364 63.7778 53.4953 68.2512 50.09 71.1082C46.8347 73.8392 42.5983 74.3456 38.7549 72.4602C37.9576 72.0712 37.1529 71.6226 36.3705 71.1307C25.5744 64.3456 21.4515 50.4957 26.7795 38.9143C29.7812 32.3933 35.1643 27.5667 41.9361 25.3231C48.6183 23.1092 55.995 23.7751 62.1741 27.1504C62.5584 27.3604 62.9386 27.5758 63.3115 27.8091C66.8986 30.0086 68.7165 33.8117 68.1738 37.9794C67.6002 42.3999 64.5574 45.9516 60.235 47.247C57.4023 48.0942 55.2887 49.6724 54.1221 51.8117Z" fill="#9FCE9E"/>
<path d="M61.3813 28.6082C59.1564 27.3929 56.3575 28.2161 55.1431 30.4428C53.9288 32.6696 54.7518 35.47 56.9767 36.6853C59.2016 37.9007 61.999 37.078 63.2133 34.8512C64.4276 32.6244 63.6062 29.8236 61.3813 28.6082ZM58.0869 34.6494C56.9834 34.0466 56.5751 32.6585 57.1773 31.554C57.7796 30.4496 59.1676 30.0414 60.2711 30.6442C61.3746 31.247 61.7814 32.6356 61.1791 33.74C60.5769 34.8444 59.1904 35.2522 58.0869 34.6494Z" fill="#9FCE9E"/>
<path d="M42.9516 62.4027C40.7267 61.1873 37.9283 62.0095 36.714 64.2363C35.4997 66.4631 36.3221 69.2644 38.547 70.4797C40.7719 71.6951 43.5699 70.8714 44.7842 68.6446C45.9985 66.4178 45.1765 63.618 42.9516 62.4027ZM39.6572 68.4438C38.5537 67.841 38.1459 66.4519 38.7482 65.3474C39.3505 64.243 40.7379 63.8358 41.8414 64.4386C42.9449 65.0414 43.3523 66.429 42.75 67.5334C42.1477 68.6379 40.7607 69.0466 39.6572 68.4438Z" fill="#9FCE9E"/>
<path d="M37.1157 42.5257C38.33 40.2989 37.5085 37.4982 35.2836 36.2828C33.0587 35.0675 30.2598 35.8906 29.0455 38.1174C27.8312 40.3442 28.6542 43.1445 30.8791 44.3599C33.1039 45.5752 35.9013 44.7525 37.1157 42.5257ZM31.9893 42.324C30.8858 41.7212 30.4774 40.333 31.0797 39.2286C31.6819 38.1241 33.0699 37.7159 34.1734 38.3187C35.2769 38.9215 35.6838 40.3101 35.0815 41.4146C34.4792 42.519 33.0928 42.9267 31.9893 42.324Z" fill="#9FCE9E"/>
<path d="M30.213 50.5561C27.7814 51.2729 26.3844 53.8347 27.0986 56.2672C27.4441 57.4468 28.2294 58.4203 29.3071 59.009C30.3848 59.5977 31.6272 59.7306 32.8048 59.3842C33.9824 59.0379 34.9555 58.2534 35.5437 57.1748C36.1319 56.0962 36.2662 54.8523 35.9192 53.6731C35.2046 51.2391 32.645 49.8409 30.213 50.5561ZM32.1515 57.1592C30.9816 57.5032 29.6656 56.7843 29.3218 55.6134C28.9676 54.4071 29.6604 53.1366 30.8662 52.7812C32.0719 52.4283 33.3403 53.1211 33.696 54.327C33.8679 54.9124 33.8012 55.5288 33.5095 56.0637C33.2179 56.5985 32.7365 56.9871 32.1515 57.1592Z" fill="#9FCE9E"/>
<path d="M43.2442 26.6612C40.8137 27.376 39.4167 29.9378 40.1298 32.3723C40.4871 33.5893 41.3064 34.5478 42.3394 35.1121C43.3724 35.6763 44.62 35.8469 45.836 35.4893C47.0147 35.1435 47.9873 34.3575 48.5755 33.2789C49.1637 32.2003 49.2974 30.9574 48.9504 29.7782C48.2594 27.419 45.6005 25.9665 43.2442 26.6612ZM45.1828 33.2642C43.976 33.6191 42.7076 32.9263 42.353 31.7185C41.9994 30.5112 42.6922 29.2407 43.8975 28.8863C44.4824 28.7142 45.0983 28.781 45.6327 29.0729C46.167 29.3648 46.5553 29.8466 46.7272 30.432C46.8991 31.0175 46.8329 31.6329 46.5413 32.1678C46.2496 32.7026 45.7677 33.0922 45.1828 33.2642Z" fill="#9FCE9E"/>
<path d="M75.5707 54.2462L77.2053 48.5873C78.2805 48.1887 79.2295 47.4351 79.8204 46.3515C80.9219 44.3315 80.5475 38.1532 80.4611 36.9358C80.4064 36.1473 79.4398 35.6219 78.7487 36.0004C77.6784 36.5873 72.2856 39.6139 71.1841 41.6339C70.593 42.7178 70.473 43.9244 70.7197 45.045L66.849 49.4819C66.8166 49.5192 66.8077 49.5687 66.7806 49.6091C66.746 49.6601 66.6974 49.6996 66.671 49.7563L55.3537 74.1008C54.646 75.6586 55.2682 77.5222 56.77 78.3426C58.2728 79.1635 60.1754 78.6791 61.1075 77.2322L75.4365 54.5444C75.4698 54.4915 75.4767 54.4293 75.5009 54.3725C75.5201 54.3279 75.5569 54.2936 75.5707 54.2462ZM59.1547 75.9836C58.8818 76.4061 58.3222 76.5481 57.8802 76.3067C57.4382 76.0652 57.2558 75.5179 57.4593 75.0691L68.2514 51.8556L72.8174 54.3498L59.1547 75.9836ZM69.5444 49.9195L71.8565 47.2696C72.2197 47.6753 72.6403 48.0393 73.1447 48.3148C73.6493 48.5905 74.1832 48.7478 74.721 48.834L73.7449 52.214L69.5444 49.9195ZM74.2549 46.2789C72.9955 45.5909 72.5309 44.0056 73.2182 42.7451C73.6731 41.9111 76.068 40.2686 78.2431 38.9653C78.3257 41.5018 78.2416 44.4053 77.7862 45.2404C77.0988 46.5009 75.5143 46.9669 74.2549 46.2789Z" fill="#9FCE9E"/>
</svg>
