<svg width="101" height="101" viewBox="0 0 101 101" fill="none" xmlns="http://www.w3.org/2000/svg">
<ellipse cx="50.302" cy="50.5" rx="49.9573" ry="50" fill="white"/>
<path d="M74.1921 50.3631V43.055H62.2353C62.5091 42.781 62.7829 42.5069 62.9655 42.1415H64.6084C66.8902 42.1415 68.7157 40.3145 68.7157 38.0307C68.7157 35.7469 66.8902 33.9199 64.6084 33.9199H64.152H63.2393H51.3738V38.4875C51.3738 40.3145 52.1039 41.8675 53.2905 43.055H43.1592V50.3631H44.9846V48.5361H46.2625L48.0879 52.1902H49.5483V75.028C49.5483 76.0328 48.7268 76.855 47.7228 76.855C46.7188 76.855 45.8974 76.0328 45.8974 75.028H44.0719C44.0719 77.0377 45.7148 78.682 47.7228 78.682C49.7308 78.682 51.3738 77.0377 51.3738 75.028V62.2388H65.9775V75.028C65.9775 77.0377 67.6204 78.682 69.6284 78.682C71.6364 78.682 73.2793 77.0377 73.2793 75.028H71.4539C71.4539 76.0328 70.6324 76.855 69.6284 76.855C68.6244 76.855 67.8029 76.0328 67.8029 75.028V52.1902H69.2633L71.0888 48.5361H72.3666V50.3631H74.1921ZM64.6084 35.7469C65.8862 35.7469 66.8902 36.7518 66.8902 38.0307C66.8902 39.3096 65.8862 40.3145 64.6084 40.3145H63.8782C64.0607 39.7664 64.152 39.1269 64.152 38.4875V35.7469H64.6084ZM53.1992 38.4875V35.7469H62.3265V38.4875C62.3265 41.0453 60.3185 43.055 57.7629 43.055C55.2072 43.055 53.1992 41.0453 53.1992 38.4875ZM51.3738 60.4118V58.5847H65.9775V60.4118H51.3738ZM65.9775 56.7577H51.3738V52.1902H65.9775V56.7577ZM68.168 50.3631H49.1832L48.2705 48.5361H69.0808L68.168 50.3631ZM44.9846 46.7091V44.8821H72.3666V46.7091H44.9846Z" fill="#8A8CDC"/>
<path d="M39.5081 75.9415C39.5081 76.4896 39.143 76.855 38.5954 76.855C38.0477 76.855 37.6826 76.4896 37.6826 75.9415V61.3253H38.5954C39.5994 61.3253 40.4208 60.5031 40.4208 59.4983V57.6712C40.4208 56.6664 39.5994 55.8442 38.5954 55.8442H23.9917L23.0789 36.6605C23.0789 35.1075 21.8924 33.9199 20.3407 33.9199C18.7891 33.9199 17.6025 35.1075 17.6025 36.6605V37.574H19.428V36.6605C19.428 36.1123 19.7931 35.7469 20.3407 35.7469C20.8884 35.7469 21.2535 36.1123 21.2535 36.6605L22.1662 56.7577V61.3253H23.9917V75.9415C23.9917 76.4896 23.6266 76.855 23.0789 76.855C22.5313 76.855 22.1662 76.4896 22.1662 75.9415V75.028H20.3407V75.9415C20.3407 77.4944 21.5273 78.682 23.0789 78.682C24.6306 78.682 25.8171 77.4944 25.8171 75.9415V61.3253H35.8572V75.9415C35.8572 77.4944 37.0437 78.682 38.5954 78.682C40.147 78.682 41.3336 77.4944 41.3336 75.9415V75.028H39.5081V75.9415ZM23.9917 57.6712H38.5954V59.4983H23.9917V57.6712Z" fill="#8A8CDC"/>
<path d="M54.112 27.16C53.5643 27.7081 53.1992 28.5302 53.1992 29.3524C53.1992 30.1746 53.5643 30.9967 54.112 31.5448L55.2985 32.7324L56.5763 31.4535L55.3898 30.2659C55.116 29.9919 55.0247 29.7178 55.0247 29.3524C55.0247 28.987 55.116 28.7129 55.3898 28.4389L55.9374 27.8908C56.4851 27.3427 56.8501 26.5205 56.8501 25.6984C56.8501 24.8762 56.4851 24.054 55.9374 23.5059L54.7509 22.3184L53.473 23.5973L54.6596 24.7848C54.9334 25.0589 55.0247 25.3329 55.0247 25.6984C55.0247 26.0638 54.9334 26.3378 54.6596 26.6119L54.112 27.16Z" fill="#8A8CDC"/>
<path d="M59.5885 27.16C59.0409 27.7081 58.6758 28.5302 58.6758 29.3524C58.6758 30.1746 59.0409 30.9967 59.5885 31.5448L60.7751 32.7324L62.0529 31.4535L60.8663 30.2659C60.5925 29.9919 60.5012 29.7178 60.5012 29.3524C60.5012 28.987 60.5925 28.7129 60.8663 28.4389L61.414 27.8908C61.9616 27.3427 62.3267 26.5205 62.3267 25.6984C62.3267 24.8762 61.9616 24.054 61.414 23.5059L60.2274 22.3184L58.9496 23.5973L60.1362 24.7848C60.41 25.0589 60.5012 25.3329 60.5012 25.6984C60.5012 26.0638 60.41 26.3378 60.1362 26.6119L59.5885 27.16Z" fill="#8A8CDC"/>
</svg>
