<svg width="101" height="100" viewBox="0 0 101 100" fill="none" xmlns="http://www.w3.org/2000/svg">
<ellipse cx="50.303" cy="50" rx="49.9573" ry="50" fill="white"/>
<path d="M77.8407 22.4383V77.5619H22.7641V22.4383H77.8407ZM77.8407 20.9092H22.7641C21.9238 20.9092 21.2363 21.5973 21.2363 22.4383V77.5619C21.2363 78.4029 21.9238 79.091 22.7641 79.091H77.8407C78.681 79.091 79.3685 78.4029 79.3685 77.5619V22.4383C79.3685 21.5973 78.681 20.9092 77.8407 20.9092Z" fill="#F4976E"/>
<path d="M51.1047 37.8056C51.1047 37.1939 50.8755 36.6587 50.4936 36.2765C50.8755 35.8942 51.1047 35.359 51.1047 34.7474C51.1047 33.677 50.4172 32.836 49.5005 32.5302C48.7366 28.9369 45.6047 26.3374 41.8616 26.3374H35.8269C32.0838 26.3374 28.9518 29.0133 28.2643 32.5302C27.3477 32.836 26.6602 33.677 26.6602 34.7474C26.6602 35.359 26.8893 35.8942 27.2713 36.2765C26.8893 36.6587 26.6602 37.1939 26.6602 37.8056C26.6602 38.8759 27.3477 39.7169 28.2643 40.0227C28.9518 43.6161 32.1602 46.2156 35.8269 46.2156H41.8616C45.5283 46.2156 48.7366 43.5396 49.4241 40.0227C50.4172 39.7169 51.1047 38.7995 51.1047 37.8056ZM35.8269 27.8665H41.8616C44.688 27.8665 47.1324 29.7779 47.8199 32.4538H47.5144L47.3616 32.3008C46.9797 31.9186 46.4449 31.6892 45.9102 31.6892H45.4519C44.9172 31.6892 44.3824 31.9186 44.0005 32.3008C43.9241 32.3773 43.7713 32.4538 43.6185 32.4538H43.1602C43.0074 32.4538 42.8547 32.3773 42.7783 32.3008C42.3963 31.9186 41.8616 31.6892 41.3269 31.6892H40.8685C40.3338 31.6892 39.7991 31.9186 39.4171 32.3008C39.3408 32.3773 39.188 32.4538 39.0352 32.4538H38.5769C38.4241 32.4538 38.2713 32.3773 38.1949 32.3008C37.813 31.9186 37.2782 31.6892 36.7435 31.6892H36.2852C35.7505 31.6892 35.2157 31.9186 34.8338 32.3008C34.7574 32.3773 34.6046 32.4538 34.4518 32.4538H33.9935C33.8407 32.4538 33.688 32.3773 33.6116 32.3008C33.2296 31.9186 32.6949 31.6892 32.1602 31.6892H31.7018C31.1671 31.6892 30.6324 31.9186 30.2504 32.3008L30.0977 32.4538H29.7921C30.556 29.7779 33.0005 27.8665 35.8269 27.8665ZM28.9518 33.9828H30.7852L31.3963 33.3712C31.4727 33.2948 31.6255 33.2183 31.7782 33.2183H32.2366C32.3893 33.2183 32.5421 33.2948 32.6185 33.3712C33.0005 33.7535 33.5352 33.9828 34.0699 33.9828H34.5282C35.063 33.9828 35.5977 33.7535 35.9796 33.3712C36.056 33.2948 36.2088 33.2183 36.3616 33.2183H36.8199C36.9727 33.2183 37.1255 33.2948 37.2019 33.3712C37.5838 33.7535 38.1185 33.9828 38.6533 33.9828H39.1116C39.6463 33.9828 40.181 33.7535 40.563 33.3712C40.6394 33.2948 40.7921 33.2183 40.9449 33.2183H41.4033C41.556 33.2183 41.7088 33.2948 41.7852 33.3712C42.1672 33.7535 42.7019 33.9828 43.2366 33.9828H43.6949C44.2297 33.9828 44.7644 33.7535 45.1463 33.3712C45.2227 33.2948 45.3755 33.2183 45.5283 33.2183H45.9866C46.1394 33.2183 46.2922 33.2948 46.3686 33.3712L46.9797 33.9828H48.813C49.2713 33.9828 49.5769 34.2887 49.5769 34.7474C49.5769 35.2061 49.2713 35.5119 48.813 35.5119H28.9518C28.4935 35.5119 28.1879 35.2061 28.1879 34.7474C28.1879 34.2887 28.4935 33.9828 28.9518 33.9828ZM28.9518 37.041H48.813C49.2713 37.041 49.5769 37.3468 49.5769 37.8056C49.5769 38.2643 49.2713 38.5701 48.813 38.5701H28.9518C28.4935 38.5701 28.1879 38.2643 28.1879 37.8056C28.1879 37.3468 28.4935 37.041 28.9518 37.041ZM41.8616 44.6865H35.8269C33.0005 44.6865 30.556 42.7751 29.8685 40.0992H47.8963C47.1324 42.7751 44.688 44.6865 41.8616 44.6865Z" fill="#F4976E"/>
<path d="M72.3421 60.0536C71.6546 56.4603 68.4462 53.8608 64.7796 53.8608H58.7448C55.0781 53.8608 51.8698 56.5367 51.1823 60.0536C50.2656 60.3595 49.5781 61.2005 49.5781 62.2708C49.5781 62.8825 49.8073 63.4176 50.1892 63.7999C49.8073 64.1822 49.5781 64.7174 49.5781 65.329C49.5781 66.3994 50.2656 67.2404 51.1823 67.5462C51.8698 71.1395 55.0781 73.739 58.7448 73.739H64.7796C68.4462 73.739 71.6546 71.0631 72.3421 67.5462C73.2588 67.2404 73.9463 66.3994 73.9463 65.329C73.9463 64.7174 73.7171 64.1822 73.3351 63.7999C73.7171 63.4176 73.9463 62.8825 73.9463 62.2708C74.0226 61.2005 73.3351 60.3595 72.3421 60.0536ZM58.7448 55.3899H64.7796C67.606 55.3899 70.0504 57.3013 70.7379 59.9772H70.4324L70.2796 59.8243C69.8976 59.442 69.3629 59.2126 68.8282 59.2126H68.3699C67.8351 59.2126 67.3004 59.442 66.9185 59.8243C66.8421 59.9007 66.6893 59.9772 66.5365 59.9772H66.0782C65.9254 59.9772 65.7726 59.9007 65.6962 59.8243C65.3143 59.442 64.7796 59.2126 64.2448 59.2126H63.7865C63.2518 59.2126 62.7171 59.442 62.3351 59.8243C62.2587 59.9007 62.1059 59.9772 61.9532 59.9772H61.4948C61.3421 59.9772 61.1893 59.9007 61.1129 59.8243C60.7309 59.442 60.1962 59.2126 59.6615 59.2126H59.2032C58.6684 59.2126 58.1337 59.442 57.7518 59.8243C57.6754 59.9007 57.5226 59.9772 57.3698 59.9772H56.9115C56.7587 59.9772 56.6059 59.9007 56.5295 59.8243C56.1476 59.442 55.6129 59.2126 55.0781 59.2126H54.6198C54.0851 59.2126 53.5504 59.442 53.1684 59.8243L53.0156 59.9772H52.7101C53.474 57.3013 55.9184 55.3899 58.7448 55.3899ZM51.8698 61.5063H53.7031L54.3143 60.8946C54.3906 60.8182 54.5434 60.7417 54.6962 60.7417H55.1545C55.3073 60.7417 55.4601 60.8182 55.5365 60.8946C55.9184 61.2769 56.4531 61.5063 56.9879 61.5063H57.4462C57.9809 61.5063 58.5157 61.2769 58.8976 60.8946C58.974 60.8182 59.1268 60.7417 59.2795 60.7417H59.7379C59.8907 60.7417 60.0434 60.8182 60.1198 60.8946C60.5018 61.2769 61.0365 61.5063 61.5712 61.5063H62.0296C62.5643 61.5063 63.099 61.2769 63.4809 60.8946C63.5573 60.8182 63.7101 60.7417 63.8629 60.7417H64.3212C64.474 60.7417 64.6268 60.8182 64.7032 60.8946C65.0851 61.2769 65.6198 61.5063 66.1546 61.5063H66.6129C67.1476 61.5063 67.6824 61.2769 68.0643 60.8946C68.1407 60.8182 68.2935 60.7417 68.4462 60.7417H68.9046C69.0574 60.7417 69.2101 60.8182 69.2865 60.8946L69.8976 61.5063H71.731C72.1893 61.5063 72.4949 61.8121 72.4949 62.2708C72.4949 62.7296 72.1893 63.0354 71.731 63.0354H51.8698C51.4115 63.0354 51.1059 62.7296 51.1059 62.2708C51.1059 61.8121 51.4115 61.5063 51.8698 61.5063ZM64.7796 72.2099H58.7448C55.9184 72.2099 53.474 70.2985 52.7865 67.6226H70.8143C70.0504 70.2985 67.606 72.2099 64.7796 72.2099ZM71.731 66.0935H51.8698C51.4115 66.0935 51.1059 65.7877 51.1059 65.329C51.1059 64.8703 51.4115 64.5645 51.8698 64.5645H71.731C72.1893 64.5645 72.4949 64.8703 72.4949 65.329C72.4949 65.7877 72.1129 66.0935 71.731 66.0935Z" fill="#F4976E"/>
<path d="M40.2576 50.8795C39.9521 49.962 39.1118 49.2739 38.0424 49.2739C37.4312 49.2739 36.8965 49.5033 36.5146 49.8856C36.1326 49.5033 35.5979 49.2739 34.9868 49.2739C33.9173 49.2739 33.0771 49.962 32.7715 50.8795C29.1812 51.5676 26.584 54.7786 26.584 58.4485V64.4884C26.584 68.1582 29.2576 71.3693 32.7715 72.0573C33.0771 72.9748 33.9173 73.6629 34.9868 73.6629C35.5979 73.6629 36.1326 73.4335 36.5146 73.0513C36.8965 73.4335 37.4312 73.6629 38.0424 73.6629C39.1118 73.6629 39.9521 72.9748 40.2576 72.0573C43.8479 71.3693 46.4452 68.1582 46.4452 64.4884V58.4485C46.5215 54.7786 43.8479 51.5676 40.2576 50.8795ZM28.1882 64.4884V58.4485C28.1882 55.6196 30.0979 53.1731 32.7715 52.485V52.7908L32.6187 52.9437C32.2368 53.326 32.0076 53.8612 32.0076 54.3964V54.8551C32.0076 55.3903 32.2368 55.9255 32.6187 56.3077C32.6951 56.3842 32.7715 56.5371 32.7715 56.69V57.1487C32.7715 57.3016 32.6951 57.4546 32.6187 57.531C32.2368 57.9133 32.0076 58.4485 32.0076 58.9836V59.4424C32.0076 59.9775 32.2368 60.5127 32.6187 60.895C32.6951 60.9715 32.7715 61.1244 32.7715 61.2773V61.736C32.7715 61.8889 32.6951 62.0418 32.6187 62.1183C32.2368 62.5005 32.0076 63.0357 32.0076 63.5709V64.0296C32.0076 64.5648 32.2368 65.1 32.6187 65.4823C32.6951 65.5587 32.7715 65.7116 32.7715 65.8645V66.3233C32.7715 66.4762 32.6951 66.6291 32.6187 66.7055C32.2368 67.0878 32.0076 67.623 32.0076 68.1582V68.6169C32.0076 69.1521 32.2368 69.6873 32.6187 70.0695L32.7715 70.2224V70.5283C30.0979 69.7637 28.1882 67.3172 28.1882 64.4884ZM35.0632 72.2103C34.6048 72.2103 34.2993 71.9044 34.2993 71.4457V69.6108L33.6882 68.9992C33.6118 68.9227 33.5354 68.7698 33.5354 68.6169V68.1582C33.5354 68.0053 33.6118 67.8524 33.6882 67.7759C34.0701 67.3936 34.2993 66.8584 34.2993 66.3233V65.8645C34.2993 65.3294 34.0701 64.7942 33.6882 64.4119C33.6118 64.3355 33.5354 64.1825 33.5354 64.0296V63.5709C33.5354 63.418 33.6118 63.2651 33.6882 63.1886C34.0701 62.8064 34.2993 62.2712 34.2993 61.736V61.2773C34.2993 60.7421 34.0701 60.2069 33.6882 59.8246C33.6118 59.7482 33.5354 59.5953 33.5354 59.4424V58.9836C33.5354 58.8307 33.6118 58.6778 33.6882 58.6014C34.0701 58.2191 34.2993 57.6839 34.2993 57.1487V56.69C34.2993 56.1548 34.0701 55.6196 33.6882 55.2374C33.6118 55.1609 33.5354 55.008 33.5354 54.8551V54.3964C33.5354 54.2435 33.6118 54.0906 33.6882 54.0141L34.2993 53.4025V51.5676C34.2993 51.1088 34.6048 50.803 35.0632 50.803C35.5215 50.803 35.8271 51.1088 35.8271 51.5676V71.4457C35.8271 71.828 35.4451 72.2103 35.0632 72.2103ZM38.8826 71.4457C38.8826 71.9044 38.5771 72.2103 38.1187 72.2103C37.6604 72.2103 37.3549 71.9044 37.3549 71.4457V51.5676C37.3549 51.1088 37.6604 50.803 38.1187 50.803C38.5771 50.803 38.8826 51.1088 38.8826 51.5676V71.4457ZM44.9938 64.4884C44.9938 67.3172 43.084 69.7637 40.4104 70.4518V52.485C43.084 53.1731 44.9938 55.6196 44.9938 58.4485V64.4884Z" fill="#F4976E"/>
<path d="M67.7576 27.9429C67.4521 27.0255 66.6118 26.3374 65.5424 26.3374C64.9312 26.3374 64.3965 26.5668 64.0146 26.949C63.6326 26.5668 63.0979 26.3374 62.4868 26.3374C61.4173 26.3374 60.5771 27.0255 60.2715 27.9429C56.6812 28.631 54.084 31.8421 54.084 35.5119V41.5518C54.084 45.2216 56.7576 48.4327 60.2715 49.1208C60.5771 50.0383 61.4173 50.7264 62.4868 50.7264C63.0979 50.7264 63.6326 50.497 64.0146 50.1147C64.3965 50.497 64.9312 50.7264 65.5424 50.7264C66.6118 50.7264 67.4521 50.0383 67.7576 49.1208C71.3479 48.4327 73.9452 45.2216 73.9452 41.5518V35.5119C74.0215 31.8421 71.3479 28.631 67.7576 27.9429ZM55.6882 41.5518V35.5119C55.6882 32.6831 57.5979 30.2366 60.2715 29.5485V47.5917C57.5979 46.8272 55.6882 44.3806 55.6882 41.5518ZM62.5632 49.2737C62.1048 49.2737 61.7993 48.9679 61.7993 48.5092V28.631C61.7993 28.1723 62.1048 27.8665 62.5632 27.8665C63.0215 27.8665 63.3271 28.1723 63.3271 28.631V48.5092C63.3271 48.8915 62.9451 49.2737 62.5632 49.2737ZM66.3826 46.6743V48.5092C66.3826 48.9679 66.0771 49.2737 65.6187 49.2737C65.1604 49.2737 64.8549 48.9679 64.8549 48.5092V28.631C64.8549 28.1723 65.1604 27.8665 65.6187 27.8665C66.0771 27.8665 66.3826 28.1723 66.3826 28.631V30.4659L66.9938 31.0776C67.0701 31.154 67.1465 31.3069 67.1465 31.4598V31.9186C67.1465 32.0715 67.0701 32.2244 66.9938 32.3008C66.6118 32.6831 66.3826 33.2183 66.3826 33.7535V34.2122C66.3826 34.7474 66.6118 35.2826 66.9938 35.6648C67.0701 35.7413 67.1465 35.8942 67.1465 36.0471V36.5058C67.1465 36.6587 67.0701 36.8117 66.9938 36.8881C66.6118 37.2704 66.3826 37.8056 66.3826 38.3407V38.7995C66.3826 39.3347 66.6118 39.8698 66.9938 40.2521C67.0701 40.3286 67.1465 40.4815 67.1465 40.6344V41.0931C67.1465 41.246 67.0701 41.3989 66.9938 41.4754C66.6118 41.8576 66.3826 42.3928 66.3826 42.928V43.3867C66.3826 43.9219 66.6118 44.4571 66.9938 44.8394C67.0701 44.9158 67.1465 45.0687 67.1465 45.2216V45.6804C67.1465 45.8333 67.0701 45.9862 66.9938 46.0626L66.3826 46.6743ZM72.4938 41.5518C72.4938 44.3806 70.584 46.8272 67.9104 47.5153V47.2095L68.0632 47.0566C68.4451 46.6743 68.6743 46.1391 68.6743 45.6039V45.1452C68.6743 44.61 68.4451 44.0748 68.0632 43.6926C67.9868 43.6161 67.9104 43.4632 67.9104 43.3103V42.8516C67.9104 42.6987 67.9868 42.5457 68.0632 42.4693C68.4451 42.087 68.6743 41.5518 68.6743 41.0167V40.5579C68.6743 40.0227 68.4451 39.4876 68.0632 39.1053C67.9868 39.0288 67.9104 38.8759 67.9104 38.723V38.2643C67.9104 38.1114 67.9868 37.9585 68.0632 37.882C68.4451 37.4997 68.6743 36.9646 68.6743 36.4294V35.9707C68.6743 35.4355 68.4451 34.9003 68.0632 34.518C67.9868 34.4416 67.9104 34.2887 67.9104 34.1358V33.677C67.9104 33.5241 67.9868 33.3712 68.0632 33.2948C68.4451 32.9125 68.6743 32.3773 68.6743 31.8421V31.3834C68.6743 30.8482 68.4451 30.313 68.0632 29.9308L67.9104 29.7779V29.472C70.584 30.1601 72.4938 32.6067 72.4938 35.4355V41.5518Z" fill="#F4976E"/>
</svg>
