<svg width="101" height="100" viewBox="0 0 101 100" fill="none" xmlns="http://www.w3.org/2000/svg">
<ellipse cx="50.302" cy="50" rx="49.9573" ry="50" fill="white"/>
<path d="M59.0571 26.4822C58.4454 23.3173 55.5907 20.9092 52.3282 20.9092H46.9586C43.6961 20.9092 40.8414 23.3173 40.2297 26.4822C39.3461 26.7574 38.7344 27.5142 38.7344 28.4774C38.7344 29.0278 38.9383 29.5095 39.2781 29.8535C38.9383 30.1975 38.7344 30.6791 38.7344 31.2295C38.7344 32.1927 39.3461 32.9496 40.1617 33.2248C40.7734 36.4585 43.6281 38.7977 46.8907 38.7977H52.2602C55.5227 38.7977 58.3774 36.3897 58.9892 33.2248C59.8048 32.9496 60.4165 32.1927 60.4165 31.2295C60.4165 30.6791 60.2126 30.1975 59.8728 29.8535C60.2126 29.5095 60.4165 29.0278 60.4165 28.4774C60.4845 27.5142 59.8728 26.7574 59.0571 26.4822ZM46.9586 22.2852H52.3282C54.8431 22.2852 57.0181 24.0053 57.6298 26.4134H57.3579L57.222 26.2757C56.8821 25.9317 56.4743 25.7253 55.9306 25.7253H55.5227C55.047 25.7253 54.5712 25.9317 54.2313 26.2757C54.1634 26.3446 54.0274 26.4134 53.8915 26.4134H53.4837C53.3477 26.4134 53.2118 26.3446 53.1438 26.2757C52.804 25.9317 52.3962 25.7253 51.8524 25.7253H51.4446C50.9688 25.7253 50.493 25.9317 50.1532 26.2757C50.0852 26.3446 49.9493 26.4134 49.8133 26.4134H49.4055C49.2696 26.4134 49.1336 26.3446 49.0657 26.2757C48.7258 25.9317 48.318 25.7253 47.7743 25.7253H47.3665C46.8907 25.7253 46.4149 25.9317 46.075 26.2757C46.0071 26.3446 45.8711 26.4134 45.7352 26.4134H45.3274C45.1914 26.4134 45.0555 26.3446 44.9875 26.2757C44.6477 25.9317 44.2399 25.7253 43.6961 25.7253H43.2883C42.8125 25.7253 42.3367 25.9317 41.9969 26.2757L41.861 26.4134H41.5891C42.2688 24.0053 44.4438 22.2852 46.9586 22.2852ZM40.7734 27.7894H42.4047L42.9485 27.239C43.0844 27.1702 43.2203 27.1014 43.2883 27.1014H43.6961C43.8321 27.1014 43.968 27.1702 44.036 27.239C44.3758 27.583 44.8516 27.7894 45.3274 27.7894H45.7352C46.211 27.7894 46.6868 27.583 47.0266 27.239C47.1625 27.1702 47.2985 27.1014 47.3665 27.1014H47.7743C47.9102 27.1014 48.0461 27.1702 48.1141 27.239C48.454 27.583 48.9297 27.7894 49.4055 27.7894H49.8133C50.2891 27.7894 50.7649 27.583 51.1048 27.239C51.2407 27.1702 51.3766 27.1014 51.4446 27.1014H51.8524C51.9884 27.1014 52.1243 27.1702 52.1923 27.239C52.5321 27.583 53.0079 27.7894 53.4837 27.7894H53.8915C54.3673 27.7894 54.8431 27.583 55.1829 27.239C55.3188 27.1702 55.4548 27.1014 55.5227 27.1014H55.9306C56.0665 27.1014 56.2024 27.1702 56.2704 27.239L56.8142 27.7894H58.4454C58.8532 27.7894 59.1251 28.0646 59.1251 28.4774C59.1251 28.8902 58.8532 29.1654 58.4454 29.1654H40.7734C40.3656 29.1654 40.0938 28.8902 40.0938 28.4774C40.0938 28.0646 40.4336 27.7894 40.7734 27.7894ZM52.3282 37.4217H46.9586C44.4438 37.4217 42.2688 35.7016 41.657 33.2936H57.6978C57.0181 35.7016 54.8431 37.4217 52.3282 37.4217ZM58.4454 31.9175H40.7734C40.3656 31.9175 40.0938 31.6423 40.0938 31.2295C40.0938 30.8167 40.3656 30.5415 40.7734 30.5415H58.4454C58.8532 30.5415 59.1251 30.8167 59.1251 31.2295C59.1251 31.6423 58.8532 31.9175 58.4454 31.9175Z" fill="#E67285"/>
<path d="M35.2007 64.0481C34.589 60.8144 31.7343 58.4751 28.4718 58.4751H23.1022C19.8397 58.4751 16.985 60.8832 16.3733 64.0481C15.4897 64.3233 14.8779 65.0801 14.8779 66.0433C14.8779 66.5938 15.0818 67.0754 15.4217 67.4194C15.0818 67.7634 14.8779 68.245 14.8779 68.7954C14.8779 69.7586 15.4897 70.5155 16.3053 70.7907C16.917 74.0244 19.7717 76.3637 23.0342 76.3637H28.4038C31.6663 76.3637 34.521 73.9556 35.1327 70.7907C35.9484 70.5155 36.5601 69.7586 36.5601 68.7954C36.5601 68.245 36.3562 67.7634 36.0163 67.4194C36.3562 67.0754 36.5601 66.5938 36.5601 66.0433C36.628 65.0801 36.0163 64.3233 35.2007 64.0481ZM23.1022 59.8511H28.4718C30.9866 59.8511 33.1616 61.5712 33.7733 63.9793H33.5015L33.3655 63.8417C33.0257 63.4977 32.5499 63.2912 32.0741 63.2912H31.6663C31.1905 63.2912 30.7147 63.4977 30.3749 63.8417C30.3069 63.9105 30.171 63.9793 30.035 63.9793H29.6272C29.4913 63.9793 29.3554 63.9105 29.2874 63.8417C28.9475 63.4977 28.4718 63.2912 27.996 63.2912H27.5882C27.1124 63.2912 26.6366 63.4977 26.2967 63.8417C26.2288 63.9105 26.0928 63.9793 25.9569 63.9793H25.5491C25.4131 63.9793 25.2772 63.9105 25.2092 63.8417C24.8694 63.4977 24.3936 63.2912 23.9178 63.2912H23.51C23.0342 63.2912 22.5584 63.4977 22.2186 63.8417C22.1506 63.9105 22.0147 63.9793 21.8787 63.9793H21.4709C21.335 63.9793 21.1991 63.9105 21.1311 63.8417C20.7912 63.4977 20.3155 63.2912 19.8397 63.2912H19.4319C18.9561 63.2912 18.4803 63.4977 18.1404 63.8417L18.0045 63.9793H17.7326C18.4123 61.5712 20.5873 59.8511 23.1022 59.8511ZM16.917 65.3553H18.5483L19.092 64.8049C19.16 64.7361 19.2959 64.6673 19.4319 64.6673H19.8397C19.9756 64.6673 20.1116 64.7361 20.1795 64.8049C20.5194 65.1489 20.9951 65.3553 21.4709 65.3553H21.8787C22.3545 65.3553 22.8303 65.1489 23.1702 64.8049C23.2381 64.7361 23.3741 64.6673 23.51 64.6673H23.9178C24.0538 64.6673 24.1897 64.7361 24.2577 64.8049C24.5975 65.1489 25.0733 65.3553 25.5491 65.3553H25.9569C26.4327 65.3553 26.9085 65.1489 27.2483 64.8049C27.3163 64.7361 27.4522 64.6673 27.5882 64.6673H27.996C28.1319 64.6673 28.2678 64.7361 28.3358 64.8049C28.6757 65.1489 29.1514 65.3553 29.6272 65.3553H30.035C30.5108 65.3553 30.9866 65.1489 31.3265 64.8049C31.3944 64.7361 31.5304 64.6673 31.6663 64.6673H32.0741C32.2101 64.6673 32.346 64.7361 32.414 64.8049L32.9577 65.3553H34.589C34.9968 65.3553 35.2687 65.6305 35.2687 66.0433C35.2687 66.4561 34.9968 66.7314 34.589 66.7314H16.917C16.5092 66.7314 16.2373 66.4561 16.2373 66.0433C16.2373 65.6305 16.5092 65.3553 16.917 65.3553ZM28.4038 74.9876H23.0342C20.5194 74.9876 18.3444 73.2676 17.7326 70.8595H33.7733C33.0937 73.2676 30.9186 74.9876 28.4038 74.9876ZM34.589 69.4834H16.917C16.5092 69.4834 16.2373 69.2082 16.2373 68.7954C16.2373 68.3826 16.5092 68.1074 16.917 68.1074H34.589C34.9968 68.1074 35.2687 68.3826 35.2687 68.7954C35.2687 69.1394 34.9968 69.4834 34.589 69.4834Z" fill="#E67285"/>
<path d="M59.2616 64.0481C58.6499 60.8144 55.7952 58.4751 52.5327 58.4751H47.1631C43.9006 58.4751 41.0459 60.8832 40.4342 64.0481C39.6186 64.3233 39.0068 65.0801 39.0068 66.0433C39.0068 66.5938 39.2107 67.0754 39.5506 67.4194C39.2107 67.7634 39.0068 68.245 39.0068 68.7954C39.0068 69.7586 39.6186 70.5155 40.4342 70.7907C41.0459 74.0244 43.9006 76.3637 47.1631 76.3637H52.5327C55.7952 76.3637 58.6499 73.9556 59.2616 70.7907C60.0773 70.5155 60.689 69.7586 60.689 68.7954C60.689 68.245 60.4851 67.7634 60.1452 67.4194C60.4851 67.0754 60.689 66.5938 60.689 66.0433C60.689 65.0801 60.0773 64.3233 59.2616 64.0481ZM47.1631 59.8511H52.5327C55.0475 59.8511 57.2226 61.5712 57.8343 63.9793H57.5624L57.4265 63.8417C57.0866 63.4977 56.6108 63.2912 56.135 63.2912H55.7272C55.2514 63.2912 54.7757 63.4977 54.4358 63.8417C54.3679 63.9105 54.2319 63.9793 54.096 63.9793H53.6882C53.5522 63.9793 53.4163 63.9105 53.3483 63.8417C53.0085 63.4977 52.5327 63.2912 52.0569 63.2912H51.6491C51.1733 63.2912 50.6975 63.4977 50.3577 63.8417C50.2897 63.9105 50.1538 63.9793 50.0178 63.9793H49.61C49.4741 63.9793 49.3381 63.9105 49.2702 63.8417C48.9303 63.4977 48.4545 63.2912 47.9788 63.2912H47.5709C47.0952 63.2912 46.6194 63.4977 46.2795 63.8417C46.2116 63.9105 46.0756 63.9793 45.9397 63.9793H45.5319C45.3959 63.9793 45.26 63.9105 45.192 63.8417C44.8522 63.4977 44.3764 63.2912 43.9006 63.2912H43.4928C43.017 63.2912 42.5412 63.4977 42.2014 63.8417L42.0654 63.9793H41.7936C42.4733 61.5712 44.6483 59.8511 47.1631 59.8511ZM40.9779 65.3553H42.6092L43.153 64.8049C43.2209 64.7361 43.3569 64.6673 43.4928 64.6673H43.9006C44.0366 64.6673 44.1725 64.7361 44.2405 64.8049C44.5803 65.1489 45.0561 65.3553 45.5319 65.3553H45.9397C46.4155 65.3553 46.8913 65.1489 47.2311 64.8049C47.2991 64.7361 47.435 64.6673 47.5709 64.6673H47.9788C48.1147 64.6673 48.2506 64.7361 48.3186 64.8049C48.6584 65.1489 49.1342 65.3553 49.61 65.3553H50.0178C50.4936 65.3553 50.9694 65.1489 51.3092 64.8049C51.3772 64.7361 51.5131 64.6673 51.6491 64.6673H52.0569C52.1928 64.6673 52.3288 64.7361 52.3967 64.8049C52.7366 65.1489 53.2124 65.3553 53.6882 65.3553H54.096C54.5718 65.3553 55.0475 65.1489 55.3874 64.8049C55.4554 64.7361 55.5913 64.6673 55.7272 64.6673H56.135C56.271 64.6673 56.4069 64.7361 56.4749 64.8049L57.0186 65.3553H58.6499C59.0577 65.3553 59.3296 65.6305 59.3296 66.0433C59.3296 66.4561 59.0577 66.7314 58.6499 66.7314H40.9779C40.5701 66.7314 40.2982 66.4561 40.2982 66.0433C40.2982 65.6305 40.6381 65.3553 40.9779 65.3553ZM52.5327 74.9876H47.1631C44.6483 74.9876 42.4733 73.2676 41.8615 70.8595H57.9022C57.2226 73.2676 55.0475 74.9876 52.5327 74.9876ZM58.6499 69.4834H40.9779C40.5701 69.4834 40.2982 69.2082 40.2982 68.7954C40.2982 68.3826 40.5701 68.1074 40.9779 68.1074H58.6499C59.0577 68.1074 59.3296 68.3826 59.3296 68.7954C59.3296 69.1394 59.0577 69.4834 58.6499 69.4834Z" fill="#E67285"/>
<path d="M83.3232 64.0481C82.7114 60.8144 79.8567 58.4751 76.5942 58.4751H71.2247C67.9621 58.4751 65.1074 60.8832 64.4957 64.0481C63.6801 64.3233 63.0684 65.0801 63.0684 66.0433C63.0684 66.5938 63.2723 67.0754 63.6121 67.4194C63.2723 67.7634 63.0684 68.245 63.0684 68.7954C63.0684 69.7586 63.6801 70.5155 64.4957 70.7907C65.1074 74.0244 67.9621 76.3637 71.2247 76.3637H76.5942C79.8567 76.3637 82.7114 73.9556 83.3232 70.7907C84.1388 70.5155 84.7505 69.7586 84.7505 68.7954C84.7505 68.245 84.5466 67.7634 84.2068 67.4194C84.5466 67.0754 84.7505 66.5938 84.7505 66.0433C84.8185 65.0801 84.2067 64.3233 83.3232 64.0481ZM71.2247 59.8511H76.5942C79.1091 59.8511 81.2841 61.5712 81.8958 63.9793H81.6239L81.488 63.8417C81.1481 63.4977 80.6724 63.2912 80.1966 63.2912H79.7888C79.313 63.2912 78.8372 63.4977 78.4973 63.8417C78.4294 63.9105 78.2934 63.9793 78.1575 63.9793H77.7497C77.6137 63.9793 77.4778 63.9105 77.4098 63.8417C77.07 63.4977 76.5942 63.2912 76.1184 63.2912H75.7106C75.2348 63.2912 74.759 63.4977 74.4192 63.8417C74.3512 63.9105 74.2153 63.9793 74.0794 63.9793H73.6715C73.5356 63.9793 73.3997 63.9105 73.3317 63.8417C72.9918 63.4977 72.5161 63.2912 72.0403 63.2912H71.6325C71.1567 63.2912 70.6809 63.4977 70.3411 63.8417C70.2731 63.9105 70.1371 63.9793 70.0012 63.9793H69.5934C69.4575 63.9793 69.3215 63.9105 69.2535 63.8417C68.9137 63.4977 68.4379 63.2912 67.9621 63.2912H67.5543C67.0785 63.2912 66.6028 63.4977 66.2629 63.8417L66.127 63.9793H65.8551C66.5348 61.5712 68.7098 59.8511 71.2247 59.8511ZM65.1074 65.3553H66.7387L67.2824 64.8049C67.3504 64.7361 67.4863 64.6673 67.6223 64.6673H68.0301C68.166 64.6673 68.302 64.7361 68.3699 64.8049C68.7098 65.1489 69.1856 65.3553 69.6614 65.3553H70.0692C70.545 65.3553 71.0207 65.1489 71.3606 64.8049C71.4286 64.7361 71.5645 64.6673 71.7004 64.6673H72.1082C72.2442 64.6673 72.3801 64.7361 72.4481 64.8049C72.7879 65.1489 73.2637 65.3553 73.7395 65.3553H74.1473C74.6231 65.3553 75.0989 65.1489 75.4387 64.8049C75.5067 64.7361 75.6426 64.6673 75.7786 64.6673H76.1864C76.3223 64.6673 76.4583 64.7361 76.5262 64.8049C76.8661 65.1489 77.3419 65.3553 77.8177 65.3553H78.2255C78.7013 65.3553 79.177 65.1489 79.5169 64.8049C79.5849 64.7361 79.7208 64.6673 79.8567 64.6673H80.2645C80.4005 64.6673 80.5364 64.7361 80.6044 64.8049L81.1481 65.3553H82.7794C83.1872 65.3553 83.4591 65.6305 83.4591 66.0433C83.4591 66.4561 83.1872 66.7314 82.7794 66.7314H65.1074C64.6996 66.7314 64.4277 66.4561 64.4277 66.0433C64.4277 65.6305 64.6996 65.3553 65.1074 65.3553ZM76.5942 74.9876H71.2247C68.7098 74.9876 66.5348 73.2676 65.9231 70.8595H81.9638C81.2841 73.2676 79.1091 74.9876 76.5942 74.9876ZM82.7794 69.4834H65.1074C64.6996 69.4834 64.4277 69.2082 64.4277 68.7954C64.4277 68.3826 64.6996 68.1074 65.1074 68.1074H82.7794C83.1872 68.1074 83.4591 68.3826 83.4591 68.7954C83.4591 69.1394 83.1192 69.4834 82.7794 69.4834Z" fill="#E67285"/>
<path d="M47.2304 45.2654C46.6187 42.0317 43.764 39.6924 40.5014 39.6924H35.1319C31.8694 39.6924 29.0147 42.1005 28.4029 45.2654C27.5873 45.5406 26.9756 46.2974 26.9756 47.2606C26.9756 47.811 27.1795 48.2927 27.5193 48.6367C27.1795 48.9807 26.9756 49.4623 26.9756 50.0127C26.9756 50.9759 27.5873 51.7328 28.4029 52.008C29.0147 55.2417 31.8694 57.5809 35.1319 57.5809H40.5014C43.764 57.5809 46.6187 55.1729 47.2304 52.008C48.046 51.7328 48.6577 50.9759 48.6577 50.0127C48.6577 49.4623 48.4538 48.9807 48.114 48.6367C48.4538 48.2927 48.6577 47.811 48.6577 47.2606C48.6577 46.2974 48.046 45.4718 47.2304 45.2654ZM35.1319 40.9996H40.5014C43.0163 40.9996 45.1913 42.7197 45.803 45.1278H45.5312L45.3952 44.9901C45.0554 44.6461 44.5796 44.4397 44.1038 44.4397H43.696C43.2202 44.4397 42.7444 44.6461 42.4046 44.9901C42.3366 45.059 42.2007 45.1278 42.0647 45.1278H41.6569C41.521 45.1278 41.385 45.059 41.3171 44.9901C40.9772 44.6461 40.5014 44.4397 40.0257 44.4397H39.6178C39.1421 44.4397 38.6663 44.6461 38.3264 44.9901C38.2585 45.059 38.1225 45.1278 37.9866 45.1278H37.5788C37.4428 45.1278 37.3069 45.059 37.2389 44.9901C36.8991 44.6461 36.4233 44.4397 35.9475 44.4397H35.5397C35.0639 44.4397 34.5881 44.6461 34.2483 44.9901C34.1803 45.059 34.0444 45.1278 33.9084 45.1278H33.5006C33.3647 45.1278 33.2287 45.059 33.1608 44.9901C32.8209 44.6461 32.3451 44.4397 31.8694 44.4397H31.4615C30.9858 44.4397 30.51 44.6461 30.1701 44.9901L30.0342 45.1278H29.7623C30.442 42.7197 32.617 40.9996 35.1319 40.9996ZM28.9467 46.5038H30.5779L31.1217 45.9534C31.1897 45.8846 31.3256 45.8158 31.4615 45.8158H31.8694C32.0053 45.8158 32.1412 45.8846 32.2092 45.9534C32.5491 46.2974 33.0248 46.5038 33.5006 46.5038H33.9084C34.3842 46.5038 34.86 46.2974 35.1998 45.9534C35.2678 45.8846 35.4038 45.8158 35.5397 45.8158H35.9475C36.0834 45.8158 36.2194 45.8846 36.2874 45.9534C36.6272 46.2974 37.103 46.5038 37.5788 46.5038H37.9866C38.4624 46.5038 38.9382 46.2974 39.278 45.9534C39.346 45.8846 39.4819 45.8158 39.6178 45.8158H40.0257C40.1616 45.8158 40.2975 45.8846 40.3655 45.9534C40.7053 46.2974 41.1811 46.5038 41.6569 46.5038H42.0647C42.5405 46.5038 43.0163 46.2974 43.3561 45.9534C43.4241 45.8846 43.56 45.8158 43.696 45.8158H44.1038C44.2397 45.8158 44.3757 45.8846 44.4436 45.9534L44.9874 46.5038H46.6187C47.0265 46.5038 47.2983 46.779 47.2983 47.1918C47.2983 47.6046 47.0265 47.8798 46.6187 47.8798H28.9467C28.5389 47.8798 28.267 47.6046 28.267 47.1918C28.267 46.779 28.6068 46.5038 28.9467 46.5038ZM40.5014 56.1361H35.1319C32.617 56.1361 30.442 54.416 29.8303 52.008H45.871C45.1233 54.416 43.0163 56.1361 40.5014 56.1361ZM46.6187 50.6319H28.9467C28.5389 50.6319 28.267 50.3567 28.267 49.9439C28.267 49.5311 28.5389 49.2559 28.9467 49.2559H46.6187C47.0265 49.2559 47.2983 49.5311 47.2983 49.9439C47.2983 50.3567 47.0265 50.6319 46.6187 50.6319Z" fill="#E67285"/>
<path d="M71.2919 45.2654C70.6802 42.0317 67.8255 39.6924 64.563 39.6924H59.1934C55.9309 39.6924 53.0762 42.1005 52.4645 45.2654C51.6488 45.5406 51.0371 46.2974 51.0371 47.2606C51.0371 47.811 51.241 48.2927 51.5809 48.6367C51.241 48.9807 51.0371 49.4623 51.0371 50.0127C51.0371 50.9759 51.6488 51.7328 52.4645 52.008C53.0762 55.2417 55.9309 57.5809 59.1934 57.5809H64.563C67.8255 57.5809 70.6802 55.1729 71.2919 52.008C72.1075 51.7328 72.7193 50.9759 72.7193 50.0127C72.7193 49.4623 72.5153 48.9807 72.1755 48.6367C72.5153 48.2927 72.7193 47.811 72.7193 47.2606C72.7193 46.2974 72.1075 45.4718 71.2919 45.2654ZM59.1934 40.9996H64.563C67.0778 40.9996 69.2528 42.7197 69.8646 45.1278H69.5927L69.4567 44.9901C69.1169 44.6461 68.6411 44.4397 68.1653 44.4397H67.7575C67.2817 44.4397 66.8059 44.6461 66.4661 44.9901C66.3981 45.059 66.2622 45.1278 66.1263 45.1278H65.7184C65.5825 45.1278 65.4466 45.059 65.3786 44.9901C65.0387 44.6461 64.563 44.4397 64.0872 44.4397H63.6794C63.2036 44.4397 62.7278 44.6461 62.388 44.9901C62.32 45.059 62.184 45.1278 62.0481 45.1278H61.6403C61.5044 45.1278 61.3684 45.059 61.3004 44.9901C60.9606 44.6461 60.4848 44.4397 60.009 44.4397H59.6012C59.1254 44.4397 58.6497 44.6461 58.3098 44.9901C58.2418 45.059 58.1059 45.1278 57.97 45.1278H57.5621C57.4262 45.1278 57.2903 45.059 57.2223 44.9901C56.8825 44.6461 56.4067 44.4397 55.9309 44.4397H55.5231C55.0473 44.4397 54.5715 44.6461 54.2317 44.9901L54.0957 45.1278H53.8238C54.5035 42.7197 56.6785 40.9996 59.1934 40.9996ZM53.0082 46.5038H54.6395L55.1832 45.9534C55.2512 45.8846 55.3871 45.8158 55.5231 45.8158H55.9309C56.0668 45.8158 56.2028 45.8846 56.2707 45.9534C56.6106 46.2974 57.0864 46.5038 57.5621 46.5038H57.97C58.4457 46.5038 58.9215 46.2974 59.2614 45.9534C59.3293 45.8846 59.4653 45.8158 59.6012 45.8158H60.009C60.145 45.8158 60.2809 45.8846 60.3489 45.9534C60.6887 46.2974 61.1645 46.5038 61.6403 46.5038H62.0481C62.5239 46.5038 62.9997 46.2974 63.3395 45.9534C63.4075 45.8846 63.5434 45.8158 63.6794 45.8158H64.0872C64.2231 45.8158 64.3591 45.8846 64.427 45.9534C64.7669 46.2974 65.2427 46.5038 65.7184 46.5038H66.1263C66.602 46.5038 67.0778 46.2974 67.4177 45.9534C67.4856 45.8846 67.6216 45.8158 67.7575 45.8158H68.1653C68.3013 45.8158 68.4372 45.8846 68.5052 45.9534L69.0489 46.5038H70.6802C71.088 46.5038 71.3599 46.779 71.3599 47.1918C71.3599 47.6046 71.088 47.8798 70.6802 47.8798H53.0082C52.6004 47.8798 52.3285 47.6046 52.3285 47.1918C52.3285 46.779 52.6684 46.5038 53.0082 46.5038ZM64.563 56.1361H59.1934C56.6785 56.1361 54.5035 54.416 53.8918 52.008H69.9325C69.2528 54.416 67.0778 56.1361 64.563 56.1361ZM70.6802 50.6319H53.0082C52.6004 50.6319 52.3285 50.3567 52.3285 49.9439C52.3285 49.5311 52.6004 49.2559 53.0082 49.2559H70.6802C71.088 49.2559 71.3599 49.5311 71.3599 49.9439C71.3599 50.3567 71.088 50.6319 70.6802 50.6319Z" fill="#E67285"/>
</svg>
