<svg width="101" height="100" viewBox="0 0 101 100" fill="none" xmlns="http://www.w3.org/2000/svg">
<ellipse cx="50.2835" cy="50" rx="49.9573" ry="50" fill="white"/>
<path d="M77.5134 60.6576C76.7398 56.5928 73.162 53.6895 69.004 53.6895H62.2352C58.0773 53.6895 54.4995 56.6896 53.7259 60.6576C52.6622 60.9479 51.8887 61.9157 51.8887 63.0771C51.8887 63.7545 52.1788 64.3352 52.5656 64.8191C52.1788 65.303 51.8887 65.8837 51.8887 66.5611C51.8887 67.7225 52.6622 68.6903 53.7259 68.9806C54.4995 73.0454 58.0773 75.9487 62.2352 75.9487H69.004C73.162 75.9487 76.7398 72.9486 77.5134 68.9806C78.577 68.6903 79.3506 67.7225 79.3506 66.5611C79.3506 65.8837 79.0605 65.303 78.6737 64.8191C79.0605 64.3352 79.3506 63.7545 79.3506 63.0771C79.3506 62.0125 78.577 60.9479 77.5134 60.6576ZM62.2352 55.4315H69.004C72.195 55.4315 74.9025 57.5606 75.7728 60.5608H75.4827L75.2893 60.3672C74.8058 59.8833 74.2257 59.6898 73.6455 59.6898H73.162C72.5818 59.6898 72.0016 59.8833 71.5181 60.3672C71.4214 60.464 71.2281 60.5608 71.1314 60.5608H70.6479C70.4545 60.5608 70.3578 60.464 70.2611 60.3672C69.7776 59.8833 69.1974 59.6898 68.6172 59.6898H68.1338C67.5536 59.6898 66.9734 59.8833 66.4899 60.3672C66.3932 60.464 66.1998 60.5608 66.1031 60.5608H65.6196C65.4262 60.5608 65.3295 60.464 65.2328 60.3672C64.7494 59.8833 64.1692 59.6898 63.589 59.6898H63.1055C62.5253 59.6898 61.9451 59.8833 61.4617 60.3672C61.365 60.464 61.1716 60.5608 61.0749 60.5608H60.5914C60.398 60.5608 60.3013 60.464 60.2046 60.3672C59.7211 59.8833 59.1409 59.6898 58.5608 59.6898H58.0773C57.4971 59.6898 56.9169 59.8833 56.4334 60.3672L55.8532 60.5608H55.5632C56.3367 57.5606 59.0442 55.4315 62.2352 55.4315ZM54.4995 62.3028H56.5301L57.207 61.6254C57.3037 61.5286 57.4971 61.4318 57.5938 61.4318H58.0773C58.2707 61.4318 58.3674 61.5286 58.4641 61.6254C58.9475 62.1093 59.5277 62.3028 60.1079 62.3028H60.6881C61.2683 62.3028 61.8485 62.1093 62.3319 61.6254C62.4286 61.5286 62.622 61.4318 62.7187 61.4318H63.2022C63.3956 61.4318 63.4923 61.5286 63.589 61.6254C64.0725 62.1093 64.6527 62.3028 65.2328 62.3028H65.7163C66.2965 62.3028 66.8767 62.1093 67.3602 61.6254C67.4569 61.5286 67.6503 61.4318 67.747 61.4318H68.4238C68.6172 61.4318 68.7139 61.5286 68.8106 61.6254C69.2941 62.1093 69.8743 62.3028 70.4545 62.3028H70.938C71.5181 62.3028 72.0983 62.1093 72.5818 61.6254C72.6785 61.5286 72.8719 61.4318 72.9686 61.4318H73.4521C73.6455 61.4318 73.7422 61.5286 73.8389 61.6254L74.5157 62.3028H76.5464C77.0299 62.3028 77.4167 62.69 77.4167 63.1739C77.4167 63.6577 77.0299 64.0449 76.5464 64.0449H54.4995C54.016 64.0449 53.6292 63.6577 53.6292 63.1739C53.6292 62.69 54.016 62.3028 54.4995 62.3028ZM69.004 74.3035H62.2352C59.0442 74.3035 56.3367 72.1743 55.4665 69.1742H75.6761C74.9025 72.1743 72.195 74.3035 69.004 74.3035ZM76.7398 67.4321H54.4995C54.016 67.4321 53.6292 67.045 53.6292 66.5611C53.6292 66.0772 54.016 65.6901 54.4995 65.6901H76.8365C77.32 65.6901 77.7067 66.0772 77.7067 66.5611C77.61 67.045 77.2233 67.4321 76.7398 67.4321Z" fill="#57B6BB"/>
<path d="M52.761 69.4045H49.2799V44.4441H60.5934V52.8551C60.8835 52.8551 61.1736 52.8551 61.4637 52.8551C61.8505 52.8551 62.1406 52.8552 62.4307 52.9519V44.5409H64.2679C64.7514 44.5409 65.2349 44.057 65.2349 43.5731V34.9597C65.2349 34.4758 64.7514 33.9919 64.2679 33.9919H53.5346C54.4048 33.0241 54.985 31.6692 54.985 30.2175C54.985 27.1205 52.4709 24.6043 49.3766 24.6043C47.5394 24.6043 45.8955 25.4753 44.9285 26.8302C43.8649 24.8946 41.8342 23.6365 39.5135 23.6365C36.1291 23.6365 33.4216 26.3463 33.4216 29.7336C33.4216 31.3788 34.0985 32.8305 35.1622 33.9919H24.9123C24.4288 33.9919 23.9453 34.4758 23.9453 34.9597V43.3795C23.9453 43.8634 24.4288 44.3473 24.9123 44.3473H26.7495V70.2754C26.7495 70.7593 27.233 71.2432 27.7165 71.2432H53.4379C53.1478 70.6626 52.9544 70.0819 52.761 69.4045ZM63.3976 35.9275V42.5085H49.2799V35.9275H63.3976ZM45.6054 30.3143C45.6054 28.1851 47.2493 26.5399 49.3766 26.5399C51.5039 26.5399 53.1478 28.1851 53.1478 30.3143C53.1478 32.4434 51.5039 34.0887 49.3766 34.0887H45.6054V30.3143ZM39.4168 25.5721C41.7375 25.5721 43.6715 27.4109 43.6715 29.8304V34.0887H39.4168C37.0961 34.0887 35.1622 32.2499 35.1622 29.8304C35.2589 27.5077 37.0961 25.5721 39.4168 25.5721ZM39.9003 69.4045H28.6835V44.4441H39.997V69.4045H39.9003ZM39.9003 42.5085H25.7826V35.9275H39.9003V42.5085ZM47.4427 69.4045H41.8342V44.4441H47.4427V69.4045ZM47.4427 42.5085H41.8342V35.9275H47.4427V42.5085Z" fill="#57B6BB"/>
</svg>
