<svg width="101" height="100" viewBox="0 0 101 100" fill="none" xmlns="http://www.w3.org/2000/svg">
<ellipse cx="50.302" cy="50" rx="49.9573" ry="50" fill="white"/>
<path d="M28.6536 78.6048L29.5695 81.2361C29.736 81.7454 30.3189 82 31.318 82H69.2855C70.2847 82 70.8675 81.7454 71.034 81.2361L71.9499 78.6048C73.1989 78.6048 74.2813 77.5013 74.2813 76.2281V75.0398C74.2813 73.7666 73.1989 72.6631 71.9499 72.6631H70.7843V47.9629C70.7843 47.4536 70.4512 47.1141 69.9516 47.1141H67.9534V30.6472C67.9534 30.1379 67.6203 29.7984 67.1207 29.7984H61.2091V18.8488C61.2091 18.3395 60.8761 18 60.3765 18H40.227C39.7275 18 39.3944 18.3395 39.3944 18.8488V29.7984H33.4828C32.9832 29.7984 32.6502 30.1379 32.6502 30.6472V47.1989H30.6519C30.1523 47.1989 29.8193 47.5385 29.8193 48.0477V72.748H28.6536C27.4047 72.748 26.3223 73.8515 26.3223 75.1247V76.2281C26.4055 77.5013 27.4047 78.6048 28.6536 78.6048ZM69.3688 80.3024H31.318C31.2347 80.3024 31.0682 80.3024 30.9849 80.3024L30.4021 78.6048H70.2014L69.6186 80.3024C69.5353 80.3024 69.4521 80.3024 69.3688 80.3024ZM62.125 61.8833C61.6254 61.8833 61.2924 62.2228 61.2924 62.7321C61.2924 64.5146 59.8769 65.8727 58.2117 65.8727C56.4632 65.8727 55.131 64.4297 55.131 62.7321C55.131 62.2228 54.7979 61.8833 54.2984 61.8833C53.7988 61.8833 53.4657 62.2228 53.4657 62.7321C53.4657 64.5146 52.0503 65.8727 50.385 65.8727C48.7198 65.8727 47.3043 64.4297 47.3043 62.7321C47.3043 62.2228 46.9713 61.8833 46.4717 61.8833C45.9721 61.8833 45.6391 62.2228 45.6391 62.7321C45.6391 64.5146 44.2236 65.8727 42.5584 65.8727C40.8099 65.8727 39.4777 64.4297 39.4777 62.7321C39.4777 62.2228 39.1446 61.8833 38.6451 61.8833C38.1455 61.8833 37.8124 62.2228 37.8124 62.7321C37.8124 64.5146 36.397 65.8727 34.7317 65.8727C32.9832 65.8727 31.651 64.4297 31.651 62.7321V58.1485C32.4837 58.9125 33.5661 59.3369 34.7317 59.3369C36.397 59.3369 37.8124 58.4881 38.6451 57.2148C39.4777 58.4881 40.9764 59.3369 42.5584 59.3369C44.2236 59.3369 45.6391 58.4881 46.4717 57.2148C47.3043 58.4881 48.8031 59.3369 50.385 59.3369C51.967 59.3369 53.4657 58.4881 54.2984 57.2148C55.131 58.4881 56.6297 59.3369 58.2117 59.3369C59.8769 59.3369 61.2924 58.4881 62.125 57.2148C62.9576 58.4881 64.4563 59.3369 66.0383 59.3369C67.204 59.3369 68.2864 58.9125 69.119 58.1485V62.817C69.119 64.5995 67.7036 65.9576 66.0383 65.9576C64.2898 65.9576 62.9576 64.5146 62.9576 62.817C62.9576 62.3077 62.6246 61.8833 62.125 61.8833ZM59.6271 19.6976V23.2626C59.6271 24.7056 58.4615 25.809 57.1293 25.809C55.7971 25.809 54.6314 24.6207 54.6314 23.2626C54.6314 22.7533 54.2984 22.4138 53.7988 22.4138C53.2992 22.4138 52.9662 22.7533 52.9662 23.2626C52.9662 24.7056 51.8005 25.809 50.4683 25.809C49.0528 25.809 47.9704 24.6207 47.9704 23.2626C47.9704 22.7533 47.6374 22.4138 47.1378 22.4138C46.6382 22.4138 46.3052 22.7533 46.3052 23.2626C46.3052 24.7056 45.1395 25.809 43.8073 25.809C42.4751 25.809 41.3095 24.6207 41.3095 23.2626V19.6976H59.6271ZM41.0597 26.6578C41.7258 27.252 42.6417 27.5915 43.5575 27.5915C44.973 27.5915 46.1387 26.9125 46.888 25.809C47.6374 26.8276 48.8863 27.5915 50.2185 27.5915C51.634 27.5915 52.7996 26.9125 53.549 25.809C54.2984 26.8276 55.5473 27.5915 56.8795 27.5915C57.7954 27.5915 58.7113 27.252 59.3773 26.7427V29.8833H41.0597V26.6578ZM66.2881 31.496V37.8621C66.2881 39.305 65.1224 40.4085 63.7902 40.4085C62.458 40.4085 61.2924 39.2202 61.2924 37.8621C61.2924 37.3528 60.9593 37.0133 60.4598 37.0133C59.9602 37.0133 59.6271 37.3528 59.6271 37.8621C59.6271 39.305 58.4615 40.4085 57.1293 40.4085C55.7971 40.4085 54.6314 39.2202 54.6314 37.8621C54.6314 37.3528 54.2984 37.0133 53.7988 37.0133C53.2992 37.0133 52.9662 37.3528 52.9662 37.8621C52.9662 39.305 51.8005 40.4085 50.4683 40.4085C49.0528 40.4085 47.9704 39.2202 47.9704 37.8621C47.9704 37.3528 47.6374 37.0133 47.1378 37.0133C46.6382 37.0133 46.3052 37.3528 46.3052 37.8621C46.3052 39.305 45.1395 40.4085 43.8073 40.4085C42.4751 40.4085 41.3095 39.2202 41.3095 37.8621C41.3095 37.3528 40.9764 37.0133 40.4768 37.0133C39.9773 37.0133 39.6442 37.3528 39.6442 37.8621C39.6442 39.305 38.4785 40.4085 37.1463 40.4085C35.8142 40.4085 34.6485 39.2202 34.6485 37.8621V31.5809H66.2881V31.496ZM34.3987 41.1724C35.0648 41.7666 35.9807 42.1061 36.8966 42.1061C38.312 42.1061 39.4777 41.4271 40.227 40.3236C40.9764 41.3422 42.2253 42.1061 43.5575 42.1061C44.973 42.1061 46.1387 41.4271 46.888 40.3236C47.6374 41.3422 48.8863 42.1061 50.2185 42.1061C51.634 42.1061 52.7996 41.4271 53.549 40.3236C54.2984 41.3422 55.5473 42.1061 56.8795 42.1061C58.2117 42.1061 59.4606 41.4271 60.21 40.3236C60.9593 41.3422 62.2083 42.1061 63.5405 42.1061C64.4563 42.1061 65.3722 41.7666 66.0383 41.2573V47.1989H34.3987V41.1724ZM69.2023 48.8117V54.4138C69.2023 56.1963 67.7868 57.5544 66.1216 57.5544C64.3731 57.5544 63.0409 56.1114 63.0409 54.4138C63.0409 53.9045 62.7078 53.565 62.2083 53.565C61.7087 53.565 61.3756 53.9045 61.3756 54.4138C61.3756 56.1963 59.9602 57.5544 58.2949 57.5544C56.5464 57.5544 55.2142 56.1114 55.2142 54.4138C55.2142 53.9045 54.8812 53.565 54.3816 53.565C53.882 53.565 53.549 53.9045 53.549 54.4138C53.549 56.1963 52.1335 57.5544 50.4683 57.5544C48.8031 57.5544 47.3876 56.1114 47.3876 54.4138C47.3876 53.9045 47.0545 53.565 46.555 53.565C46.0554 53.565 45.7224 53.9045 45.7224 54.4138C45.7224 56.1963 44.3069 57.5544 42.6417 57.5544C40.8931 57.5544 39.561 56.1114 39.561 54.4138C39.561 53.9045 39.2279 53.565 38.7283 53.565C38.2288 53.565 37.8957 53.9045 37.8957 54.4138C37.8957 56.1963 36.4803 57.5544 34.815 57.5544C33.0665 57.5544 31.7343 56.1114 31.7343 54.4138V48.8966H69.2023V48.8117ZM31.4845 66.382C32.3171 67.1459 33.3996 67.5703 34.5652 67.5703C36.2305 67.5703 37.6459 66.7215 38.4785 65.4483C39.3112 66.7215 40.8099 67.5703 42.3919 67.5703C44.0571 67.5703 45.4726 66.7215 46.3052 65.4483C47.1378 66.7215 48.6365 67.5703 50.2185 67.5703C51.8005 67.5703 53.2992 66.7215 54.1318 65.4483C54.9645 66.7215 56.4632 67.5703 58.0452 67.5703C59.7104 67.5703 61.1259 66.7215 61.9585 65.4483C62.7911 66.7215 64.2898 67.5703 65.8718 67.5703C67.0375 67.5703 68.1199 67.1459 68.9525 66.382V72.6631H31.4845V66.382ZM28.0708 75.1247C28.0708 74.7851 28.4038 74.4456 28.7369 74.4456H72.0332C72.3662 74.4456 72.6993 74.7851 72.6993 75.1247V76.2281C72.6993 76.5676 72.3662 76.9072 72.0332 76.9072H28.7369C28.4038 76.9072 28.0708 76.5676 28.0708 76.2281V75.1247Z" fill="#E58383"/>
</svg>
