<svg width="124" height="125" viewBox="0 0 124 125" fill="none" xmlns="http://www.w3.org/2000/svg">
<path d="M105.925 105.925C81.725 130.125 42.525 130.125 18.225 105.925C-6.075 81.625 -6.075 42.425 18.225 18.225C42.425 -6.075 81.625 -6.075 105.925 18.225C130.025 42.425 130.025 81.625 105.925 105.925Z" fill="#B3D9F3"/>
<path d="M78.3 55L77.7 82.4C77.7 82.4 74.3 86.6 60.9 86.6C47.7 86.6 45.6 81.8 45.6 81.8L45.1 56.6C44.5 56.7 45.8 56.6 45.1 56.6C38 56.7 31 51 31 43.9C31 36.8 36.8 31 43.9 31C45.7 31 47.5 31.4 49.1 32.1C51.2 27.9 55.7 25 60.7 25C65.5 25 69.4 27.7 71.7 31.6C73.8 30 76.4 29.2 79.3 29.2C86.4 29.2 92.2 34.9 92.2 42.1C92.3 49.2 85.5 55 78.3 55C78.9 55 77.9 55 78.3 55Z" fill="white"/>
<path d="M55.25 91.6001V98.8001L61.75 95.1001L55.25 91.6001Z" fill="black"/>
<path d="M67.9502 91.6001V98.8001L61.4502 95.1001L67.9502 91.6001Z" fill="black"/>
</svg>
