<svg width="76" height="69" viewBox="0 0 76 69" fill="none" xmlns="http://www.w3.org/2000/svg">
<g clip-path="url(#clip0_1_1480)">
<path d="M68.2431 26.4565C72.4515 35.7162 63.2915 48.9236 47.7851 55.971C32.1718 62.9783 16.1982 61.1937 12.0232 52.0074C11.7894 51.493 11.6291 50.9452 11.5022 50.4708C8.87712 41.3782 17.8901 29.213 32.5881 22.533C47.2861 15.853 62.3779 17.063 67.535 25.0935C67.702 25.461 68.0093 25.942 68.2431 26.4565Z" fill="#78CCCA"/>
<path d="M67.4292 25.0535C67.9234 27.3116 67.0748 29.7367 66.6805 32.576C66.2862 35.4153 65.1036 38.0809 62.164 39.4169C60.6942 40.0849 59.3446 41.4076 58.5294 42.9308C57.2466 45.3759 54.7279 47.0526 52.0689 47.6404C49.7373 48.168 47.3789 49.4172 45.5082 51.1541C42.4082 53.8931 39.1546 54.9284 35.4067 54.681C32.0196 54.447 28.7861 54.9412 26.0402 55.9232C22.0117 57.3994 19.0722 56.7846 16.1996 54.366C14.4493 52.8561 12.5653 52.0276 11.4297 50.5043C8.80463 41.4117 17.8176 29.2465 32.5156 22.5665C47.1802 15.813 62.272 17.023 67.4292 25.0535Z" fill="#5EC4BA"/>
<path d="M66.106 21.7532C67.275 24.3254 66.1992 27.031 65.7514 30.338C65.3571 33.1773 64.1745 35.8428 61.2349 37.1788C59.7651 37.8468 58.4155 39.1696 57.6004 40.6927C56.2441 43.1712 53.7988 44.8146 51.1398 45.4023C48.8082 45.93 46.4499 47.1792 44.5792 48.9161C41.4791 51.655 38.2256 52.6904 34.4777 52.443C31.0905 52.209 27.857 52.7032 25.1446 53.7586C21.0425 55.2683 18.0696 54.58 15.197 52.1614C13.1661 50.4243 10.8546 49.4354 9.88605 47.3042C6.27885 39.3673 15.9399 27.2622 31.4463 20.2148C47.0262 13.134 62.4988 13.8163 66.106 21.7532Z" fill="#EB5660"/>
<path d="M63.8351 16.7558C68.0435 26.0155 58.8501 39.1494 43.3437 46.1968C27.7638 53.2776 11.7902 51.493 7.6152 42.3068C7.2144 41.4249 6.96058 40.4762 6.78025 39.4941C5.27086 30.5151 14.1101 19.1382 28.0732 12.7922C42.1098 6.41283 56.4935 7.23532 62.2653 14.2771C62.8531 14.9853 63.4009 15.8004 63.8351 16.7558Z" fill="#5EC4BA"/>
<path d="M62.5658 14.9385C64.0752 23.9175 55.2359 35.2944 41.1993 41.6738C27.2362 48.0198 12.8526 47.1973 7.08077 40.1555C5.57138 31.1765 14.4106 19.7996 28.3737 13.4536C42.4103 7.07422 56.794 7.8967 62.5658 14.9385Z" fill="#78CCCA"/>
<path d="M32.5695 17.2219C34.9678 19.7674 32.1281 26.2008 26.3289 31.5852C20.5632 37.0431 13.9023 39.3609 11.5375 36.8889C9.13919 34.3434 11.9789 27.91 17.778 22.5256C23.5438 17.0677 30.2046 14.7499 32.5695 17.2219Z" fill="#9BD7D5"/>
<path d="M43.5388 21.4579C43.2449 21.5915 43.4787 22.1059 43.7726 21.9723C44.1067 21.7318 43.9063 21.2909 43.5388 21.4579Z" fill="#5EC4BA"/>
<path d="M45.2302 15.8128C44.2748 16.247 44.9428 17.7168 45.8982 17.2826C46.8536 16.8484 46.1856 15.3786 45.2302 15.8128Z" fill="#5EC4BA"/>
<path d="M37.5525 28.9668C36.5971 29.401 37.2985 30.9443 38.2539 30.5101C39.2827 30.0425 38.5813 28.4992 37.5525 28.9668Z" fill="#5EC4BA"/>
<path d="M26.1006 36.7426L26.0271 36.776C25.7332 36.9096 25.967 37.4241 26.2609 37.2905L26.3344 37.2571C26.6284 37.1235 26.3946 36.609 26.1006 36.7426Z" fill="#5EC4BA"/>
<path d="M34.1179 25.1187L34.0445 25.1521C33.7238 25.0318 33.5233 25.5662 33.844 25.6865C34.0244 25.6932 34.1313 25.7333 34.3517 25.6331C34.7192 25.4661 34.4854 24.9517 34.1179 25.1187Z" fill="#5EC4BA"/>
<path d="M33.2107 13.5607C32.9167 13.6943 33.1505 14.2087 33.4445 14.0751C33.7385 13.9415 33.5047 13.4271 33.2107 13.5607Z" fill="#7AC143"/>
<path d="M31.0659 37.3242L30.8454 37.4244C29.8901 37.8585 30.5915 39.4018 31.5468 38.9676L31.7673 38.8674C32.7628 38.3264 32.0948 36.8566 31.0659 37.3242Z" fill="#5EC4BA"/>
<path d="M11.3023 37.3498C10.8346 37.2963 10.4605 37.6437 10.407 38.1113C10.3268 38.3251 10.3535 38.579 10.4537 38.7994C10.6541 39.2404 11.1552 39.3673 11.5226 39.2003C11.8901 39.0333 12.0504 38.6058 11.9569 38.2049C12.1173 37.7774 11.663 37.3631 11.3023 37.3498Z" fill="#5EC4BA"/>
<path d="M48.8904 30.1099C47.935 30.5441 48.603 32.0139 49.5584 31.5797C50.5137 31.1455 49.9192 29.6423 48.8904 30.1099Z" fill="#5EC4BA"/>
</g>
<defs>
<clipPath id="clip0_1_1480">
<rect width="61.7538" height="47.3849" fill="white" transform="translate(0 25.551) rotate(-24.441)"/>
</clipPath>
</defs>
</svg>
