<svg width="67" height="54" viewBox="0 0 67 54" fill="none" xmlns="http://www.w3.org/2000/svg">
<g clip-path="url(#clip0_1_1498)">
<path d="M63.3334 35.2957C62.2808 45.4123 47.6989 52.1733 30.7577 50.4106C13.7444 48.5592 0.866898 38.941 1.91119 28.9046C1.96967 28.3426 2.10844 27.7889 2.23885 27.3155C4.57289 18.1439 18.5008 12.2076 34.5589 13.8784C50.617 15.5493 63.0244 24.2258 63.4118 33.7618C63.3701 34.1633 63.3919 34.7337 63.3334 35.2957Z" fill="#78CCCA"/>
<path d="M63.3406 33.673C62.6249 35.8711 60.6664 37.5339 58.8902 39.7839C57.1141 42.0339 54.7458 43.7353 51.5341 43.4011C49.9283 43.2341 48.0951 43.6926 46.6216 44.5943C44.2783 46.0549 41.2574 46.2275 38.6663 45.3898C36.388 44.6658 33.7217 44.5506 31.2294 45.1029C27.1699 45.8979 23.8395 45.1456 20.7314 43.0367C17.9277 41.1217 14.8883 39.9127 12.0229 39.3711C7.80089 38.6072 5.57597 36.5901 4.32104 33.0509C3.57477 30.8631 2.36856 29.1955 2.15926 27.3071C4.4933 18.1354 18.4212 12.1991 34.4793 13.8699C50.5457 15.4605 62.9531 24.137 63.3406 33.673Z" fill="#5EC4BA"/>
<path d="M63.8683 30.1571C63.5759 32.9672 61.2795 34.7573 59.2207 37.3837C57.4446 39.6336 55.0762 41.3351 51.8646 41.0009C50.2588 40.8338 48.4256 41.2923 46.952 42.1941C44.5284 43.6463 41.5879 43.8272 38.9968 42.9895C36.7185 42.2655 34.0522 42.1504 31.5599 42.7027C27.5004 43.4977 24.1699 42.7453 21.0618 40.6364C18.2582 38.7215 15.2187 37.5125 12.345 37.0511C8.04271 36.2788 5.82614 34.1815 4.57122 30.6422C3.69778 28.1166 2.20383 26.0944 2.4461 23.766C3.34837 15.0946 17.8049 9.53796 34.7462 11.3007C51.7677 13.0718 64.7706 21.4857 63.8683 30.1571Z" fill="#EB5660"/>
<path d="M64.4364 24.6973C63.3837 34.8139 48.8103 41.4946 31.869 39.7319C14.8474 37.9608 1.96987 28.3425 3.01416 18.3062C3.11441 17.3427 3.37525 16.396 3.71637 15.4575C6.95541 6.94816 20.3347 1.60403 35.5899 3.19135C50.9254 4.78702 62.9179 12.7711 64.3357 21.765C64.4846 22.6733 64.545 23.6535 64.4364 24.6973Z" fill="#5EC4BA"/>
<path d="M64.2604 22.4877C61.0213 30.9971 47.642 36.3412 32.3066 34.7455C17.0514 33.1582 5.05889 25.1741 3.64109 16.1802C6.88013 7.67079 20.2594 2.32666 35.5146 3.91398C50.8501 5.50966 62.8426 13.4937 64.2604 22.4877Z" fill="#78CCCA"/>
<path d="M37.2283 9.28654C38.0098 12.6954 32.3064 16.8092 24.5804 18.5213C16.846 20.3136 9.92758 18.9445 9.13769 15.6159C8.35615 12.207 14.0596 8.0932 21.7856 6.38115C29.5199 4.58881 36.4384 5.95796 37.2283 9.28654Z" fill="#9BD7D5"/>
<path d="M44.5485 18.4889C44.2273 18.4555 44.1688 19.0175 44.49 19.051C44.8998 19.0124 44.9499 18.5307 44.5485 18.4889Z" fill="#5EC4BA"/>
<path d="M48.8619 14.4738C47.8182 14.3652 47.6511 15.971 48.6948 16.0796C49.7386 16.1882 49.9057 14.5824 48.8619 14.4738Z" fill="#5EC4BA"/>
<path d="M35.5875 21.9389C34.5437 21.8303 34.3683 23.5164 35.4121 23.625C36.5361 23.7419 36.7116 22.0558 35.5875 21.9389Z" fill="#5EC4BA"/>
<path d="M21.7753 22.8554L21.695 22.8471C21.3738 22.8137 21.3153 23.3757 21.6365 23.4091L21.7168 23.4175C22.0379 23.4509 22.0964 22.8889 21.7753 22.8554Z" fill="#5EC4BA"/>
<path d="M34.5708 16.8826L34.4905 16.8743C34.2746 16.6083 33.8314 16.968 34.0472 17.2339C34.1995 17.3309 34.2714 17.4196 34.5123 17.4446C34.9137 17.4864 34.9722 16.9244 34.5708 16.8826Z" fill="#5EC4BA"/>
<path d="M39.6334 6.45255C39.3123 6.41914 39.2538 6.98117 39.575 7.01459C39.8961 7.048 39.9546 6.48597 39.6334 6.45255Z" fill="#7AC143"/>
<path d="M25.7639 25.8675L25.5231 25.8424C24.4793 25.7338 24.3038 27.4199 25.3476 27.5285L25.5885 27.5536C26.7209 27.5903 26.888 25.9845 25.7639 25.8675Z" fill="#5EC4BA"/>
<path d="M8.70277 15.8951C8.32638 15.6124 7.82793 15.7229 7.54529 16.0993C7.368 16.2432 7.26264 16.4757 7.23758 16.7166C7.18746 17.1983 7.55549 17.5612 7.95694 17.603C8.3584 17.6448 8.71297 17.357 8.83504 16.9639C9.18962 16.6762 9.00722 16.0891 8.70277 15.8951Z" fill="#5EC4BA"/>
<path d="M44.7897 28.6588C43.7459 28.5502 43.5788 30.1561 44.6226 30.2647C45.6664 30.3733 45.9137 28.7758 44.7897 28.6588Z" fill="#5EC4BA"/>
</g>
<defs>
<clipPath id="clip0_1_1498">
<rect width="61.7538" height="47.3849" fill="white" transform="translate(4.91895) rotate(5.94032)"/>
</clipPath>
</defs>
</svg>
