<svg width="114" height="120" viewBox="0 0 114 120" fill="none" xmlns="http://www.w3.org/2000/svg">
<g clip-path="url(#clip0_27_239)">
<path d="M79.7681 97.454C75.8724 109.437 56.4565 113.85 36.3904 107.326C16.2601 100.676 3.15173 85.6886 7.01658 73.8011C7.23301 73.1354 7.54455 72.5006 7.82516 71.9609C13.0284 61.4549 31.4385 57.8715 50.4585 64.0553C69.4785 70.2391 82.2613 83.9638 80.2605 95.6162C80.1059 96.0917 79.9846 96.7883 79.7681 97.454Z" fill="#F7AD1A"/>
<path d="M80.1947 95.4903C78.7584 97.9676 75.9551 99.4747 73.2206 101.74C70.4861 104.006 67.1764 105.453 63.3724 104.217C61.4704 103.598 59.1308 103.679 57.1122 104.389C53.8952 105.552 50.191 104.978 47.2691 103.292C44.6967 101.825 41.4966 100.995 38.3344 101.018C33.2107 100.93 29.3711 99.1558 26.1522 95.7959C23.2519 92.75 19.8831 90.498 16.5522 89.0996C11.6356 87.0805 9.46279 84.0608 8.85938 79.4482C8.52207 76.6046 7.49283 74.272 7.72846 71.9301C12.9317 61.4242 31.3418 57.8407 50.3618 64.0245C69.4127 70.1132 82.1955 83.838 80.1947 95.4903Z" fill="#EE8034"/>
<path d="M81.7458 91.3678C80.6637 94.6963 77.4181 96.2699 74.2437 98.9182C71.5093 101.184 68.1995 102.631 64.3955 101.395C62.4935 100.776 60.154 100.857 58.1353 101.568C54.8232 102.699 51.2141 102.156 48.2922 100.47C45.7198 99.0031 42.5197 98.173 39.3575 98.1965C34.2338 98.1079 30.3942 96.3338 27.1753 92.974C24.275 89.928 20.9062 87.676 17.5444 86.3728C12.5327 84.3227 10.3908 81.2079 9.78743 76.5953C9.38359 73.3094 8.09762 70.4728 8.99427 67.7149C12.3335 57.4441 31.2856 54.4575 51.3517 60.9814C71.4178 67.5053 85.0851 81.097 81.7458 91.3678Z" fill="#F7ADBB"/>
<path d="M84.0402 85.279C80.1445 97.2617 60.7595 101.58 40.6934 95.0558C20.6273 88.5319 7.51892 73.5446 11.3838 61.6571C11.7548 60.5159 12.316 59.4365 12.9723 58.388C18.9744 48.983 36.5665 45.9748 54.6355 51.8494C72.7996 57.7549 85.2591 70.5334 84.6469 81.7959C84.5921 82.9348 84.4113 84.1378 84.0402 85.279Z" fill="#EE8034"/>
<path d="M84.4852 81.3227C78.3881 90.6968 60.796 93.705 42.6319 87.7995C24.5629 81.9249 12.1033 69.1464 12.6847 57.9789C18.8127 48.5097 36.4048 45.5015 54.4738 51.3761C72.6379 57.2816 85.0975 70.0601 84.4852 81.3227Z" fill="#F7AD1A"/>
<path d="M54.8812 59.1843C54.9449 63.5162 46.9702 67.0223 37.1674 67.095C27.3646 67.1676 19.3073 63.812 19.2126 59.5751C19.1489 55.2432 27.1237 51.7371 36.9265 51.6644C46.7602 51.4967 54.7866 54.9474 54.8812 59.1843Z" fill="#FFC928"/>
<path d="M61.3654 72.2283C60.985 72.1046 60.7685 72.7703 61.1489 72.894C61.6554 72.9534 61.8409 72.3828 61.3654 72.2283Z" fill="#EE8034"/>
<path d="M67.6304 68.4819C66.394 68.0799 65.7448 70.077 66.9811 70.479C68.2174 70.8809 68.8667 68.8838 67.6304 68.4819Z" fill="#EE8034"/>
<path d="M49.6147 74.0864C48.3784 73.6844 47.76 75.5864 48.9963 75.9884C50.2327 76.3903 50.9461 74.5192 49.6147 74.0864Z" fill="#EE8034"/>
<path d="M32.646 71.619L32.5509 71.5881C32.1705 71.4644 31.9541 72.1301 32.3345 72.2538L32.4296 72.2847C32.81 72.4084 33.0264 71.7427 32.646 71.619Z" fill="#EE8034"/>
<path d="M49.6935 67.6978C49.5984 67.6669 49.6935 67.6978 49.6935 67.6978C49.4058 67.2888 48.7757 67.6097 48.9683 67.9878C49.1276 68.1447 49.1917 68.2707 49.477 68.3635C49.9526 68.5181 50.169 67.8524 49.6935 67.6978Z" fill="#EE8034"/>
<path d="M58.5275 56.3743C58.1471 56.2506 57.9307 56.9163 58.3111 57.04C58.6915 57.1636 58.9079 56.4979 58.5275 56.3743Z" fill="#EE8034"/>
<path d="M36.6969 76.301L36.4116 76.2082C35.1753 75.8063 34.5569 77.7083 35.7932 78.1102L36.0785 78.203C37.4099 78.6358 38.0283 76.7338 36.6969 76.301Z" fill="#EE8034"/>
<path d="M18.6122 59.8008C18.2294 59.3609 17.597 59.3656 17.1571 59.7483C16.9051 59.8767 16.7172 60.1311 16.6245 60.4164C16.4389 60.987 16.7908 61.522 17.2663 61.6765C17.7418 61.8311 18.2458 61.5744 18.4955 61.1298C18.9996 60.8731 18.9307 60.1147 18.6122 59.8008Z" fill="#EE8034"/>
<path d="M59.021 84.6105C57.7847 84.2086 57.1354 86.2057 58.3717 86.6076C59.734 86.9454 60.3524 85.0434 59.021 84.6105Z" fill="#EE8034"/>
</g>
<path d="M100.016 19.1821C99.8027 18.8634 99.4507 18.681 99.1052 18.5205C97.884 17.9383 96.6176 17.4052 95.2709 17.2057C93.9314 17.0101 92.4967 17.1583 91.3498 17.8774C92.6032 15.5415 94.1014 13.3482 95.8109 11.3251C95.681 11.2084 95.5441 11.0878 95.4142 10.9711C93.8334 12.098 92.6599 13.6952 91.6897 15.3754C90.7196 17.0557 89.9238 18.8217 88.9465 20.4981C89.7876 17.1095 89.3289 13.4182 87.684 10.3325C87.2923 10.4597 86.9045 10.5798 86.5129 10.7071C87.8058 11.8343 88.1808 13.5477 88.4041 15.252C88.6204 16.9525 88.7282 18.6492 88.3267 20.317L87.9314 22.3287C88.3208 20.8015 89.4707 19.9921 90.9138 19.2871C92.5666 18.4847 93.705 18.3223 95.4194 18.354C96.6129 18.3781 99.1248 19.3133 99.9082 20.2092C100.231 19.9891 100.233 19.4936 100.016 19.1821Z" fill="#E08CB8"/>
<path d="M87.9355 22.3215C87.9066 22.4254 87.8848 22.5332 87.8701 22.6448L87.9355 22.3215Z" fill="#E08CB8"/>
<path d="M89.7243 18.6298L46.045 53.6664C46.045 53.6664 47.2762 58.4593 51.7192 62.5809C55.2433 65.8524 61.9869 69.5887 61.9869 69.5887C61.9869 69.5887 68.7846 73.2255 73.445 74.4103C79.3178 75.9057 84.0118 74.339 84.0118 74.339L89.7243 18.6298Z" fill="#46A5AA"/>
<path d="M86.487 31.4254C87.0123 31.9323 87.6029 32.4379 88.2384 32.7932L88.5978 29.308C87.4583 28.4575 86.2736 27.656 85.2397 26.679C84.3951 25.8786 83.6634 24.9557 83.0684 23.9508L81.2222 25.4301C82.8021 27.5694 84.5711 29.5817 86.487 31.4254Z" fill="#E08CB8"/>
<path d="M85.4793 55.8964C85.5974 55.9331 85.7265 55.9666 85.8595 55.9931L86.2247 52.4466C83.4504 50.0986 80.2989 48.1895 77.5929 45.7499C74.1923 42.6744 71.5627 38.758 69.9854 34.4484L66.1813 37.4935C69.166 40.8762 71.6405 44.6713 74.5955 48.0747C77.5608 51.4929 81.1492 54.5786 85.4793 55.8964Z" fill="#E08CB8"/>
<path d="M85.1407 62.9631C84.9921 62.8638 84.8397 62.7716 84.6911 62.6723C79.729 59.538 74.7392 56.3702 70.3875 52.4363C66.8324 49.2216 63.6911 45.4499 61.6214 41.1482L57.2065 44.6889C62.9758 54.9343 72.3006 63.1494 83.2082 67.561C83.6545 67.7395 84.1375 67.9013 84.6301 67.9947L85.1407 62.9631Z" fill="#E08CB8"/>
<path d="M78.511 29.0779C78.3235 28.7458 78.1475 28.3923 77.9754 28.0317L75.0199 30.3978C77.4997 34.251 80.2865 37.9124 83.3389 41.3229C84.426 42.5405 85.5821 43.7497 87.0449 44.4634L87.4822 40.1925C83.8962 37.0345 80.8421 33.255 78.511 29.0779Z" fill="#E08CB8"/>
<path d="M57.401 63.4113C59.0043 65.6094 60.614 67.8294 62.4372 69.8435C64.0764 70.69 69.4943 73.41 73.4012 74.4054C74.3625 74.6528 75.2909 74.8086 76.1669 74.9083C75.9883 74.5258 75.7181 74.1762 75.4434 73.8518C73.1146 71.0747 70.1237 68.9216 67.5859 66.3251C62.7729 61.3948 59.7015 54.9741 54.9264 49.9908C54.3047 49.3395 53.6463 48.7049 53.0807 48.0012L48.7665 51.4587C49.2786 52.2436 49.8313 53.0047 50.3737 53.7509C52.7159 56.9771 55.062 60.1962 57.401 63.4113Z" fill="#E08CB8"/>
<path opacity="0.34" d="M58.2253 49.7349C57.2335 50.5752 56.1999 51.4755 55.7488 52.693C55.2977 53.9105 55.654 55.54 56.8558 56.0564C57.6869 56.4077 58.6774 56.128 59.3945 55.5891C60.1116 55.0501 60.6304 54.2835 61.1375 53.5382C64.8331 48.1888 69.3098 43.3843 74.3765 39.3059C75.2439 38.6095 78.0172 35.5461 75.1605 35.6839C73.4966 35.7625 70.9822 38.8748 69.7479 39.9236C65.9105 43.199 62.066 46.4705 58.2253 49.7349Z" fill="white"/>
<path opacity="0.34" d="M77.2779 33.4869C77.1742 33.6605 77.0698 33.8522 77.0881 34.0554C77.1144 34.447 77.5658 34.6836 77.9499 34.6718C78.7289 34.6451 79.3233 33.9933 79.8254 33.3925C80.4939 32.5878 84.1973 29.0003 81.2009 29.4116C79.4197 29.638 78.0638 32.1113 77.2779 33.4869Z" fill="white"/>
<path d="M98.299 25.5814C98.7788 23.5329 98.0365 21.2423 96.4374 19.8655C94.8383 18.4887 92.467 18.0901 90.5076 18.8637C91.4678 17.4724 92.7354 16.2946 94.1906 15.449C94.9737 14.992 95.8769 14.6188 96.7768 14.7591C96.7242 14.3992 96.6605 14.0424 96.6078 13.6825C93.2295 13.7294 89.9944 16.0169 88.8246 19.1804C88.9726 17.623 88.0742 16.0756 86.7875 15.1909C85.4974 14.2953 83.8757 13.992 82.3098 14.0596C82.0162 14.0745 81.7077 14.0998 81.4736 14.276C81.0202 14.6181 81.0765 15.2929 81.1694 15.8496C82.6918 15.0498 84.6768 15.2104 86.0599 16.2395C87.443 17.2687 88.1571 19.1206 87.8344 20.8129L88.383 21.903C89.2424 20.4937 91.0153 19.7751 92.6473 19.9919C94.2864 20.2127 95.7367 21.2876 96.6039 22.6892C96.8917 23.1587 97.1305 23.6844 97.1369 24.2309C97.1395 24.7844 96.8626 25.3606 96.3587 25.5924C97.0217 25.6773 97.6659 25.6784 98.299 25.5814Z" fill="#46A5AA"/>
<defs>
<clipPath id="clip0_27_239">
<rect width="76.8" height="58.7" fill="white" transform="translate(18.1465 39.5652) rotate(18.0103)"/>
</clipPath>
</defs>
</svg>
