<svg width="69" height="61" viewBox="0 0 69 61" fill="none" xmlns="http://www.w3.org/2000/svg">
<g clip-path="url(#clip0_1_1516)">
<path d="M60.5456 43.2708C57.9263 52.5682 43.327 56.5791 27.929 52.2411C12.4788 47.8089 2.1202 36.7668 4.71867 27.5433C4.86419 27.0267 5.08268 26.5308 5.28038 26.1086C8.93236 17.8986 22.7922 14.5555 37.3874 18.6673C51.9827 22.7791 62.0591 32.8655 60.8676 41.8483C60.7636 42.2172 60.6911 42.7543 60.5456 43.2708Z" fill="#F281A3"/>
<path d="M60.8165 41.754C59.7965 43.6967 57.7129 44.9416 55.7028 46.7646C53.6926 48.5876 51.2233 49.8035 48.3043 48.9811C46.8447 48.57 45.0729 48.708 43.5621 49.3177C41.1552 50.3122 38.3304 49.9942 36.0676 48.7993C34.0761 47.7603 31.6263 47.2295 29.2291 47.3506C25.3414 47.45 22.3804 46.2176 19.8457 43.7513C17.5613 41.5149 14.9439 39.9014 12.3791 38.9399C8.59451 37.5552 6.86255 35.315 6.27611 31.8047C5.94087 29.6395 5.09524 27.888 5.20848 26.0881C8.86046 17.8781 22.7203 14.535 37.3155 18.6468C51.9316 22.6848 62.008 32.7712 60.8165 41.754Z" fill="#EE5D7C"/>
<path d="M61.8768 38.5483C61.1492 41.1309 58.7322 42.441 56.3991 44.5714C54.3889 46.3944 51.9197 47.6102 49.0006 46.7879C47.5411 46.3767 45.7693 46.5147 44.2584 47.1245C41.7786 48.0984 39.0267 47.801 36.764 46.606C34.7724 45.5671 32.3226 45.0362 29.9254 45.1573C26.0378 45.2568 23.0767 44.0244 20.542 41.5581C18.2576 39.3216 15.6402 37.7082 13.0547 36.8205C9.19709 35.4151 7.48592 33.1012 6.89947 29.5909C6.50144 27.0894 5.44705 24.9606 6.0499 22.8207C8.29498 14.8515 22.5825 11.9475 37.9805 16.2854C53.3785 20.6233 64.1219 30.5791 61.8768 38.5483Z" fill="#AAD7D4"/>
<path d="M63.2904 33.5306C60.6712 42.828 46.0926 46.7651 30.6946 42.4272C15.2236 38.0687 4.86504 27.0267 7.46351 17.8031C7.71297 16.9176 8.10837 16.0733 8.57675 15.2495C12.9589 7.80272 26.2146 4.92656 40.0801 8.83275C53.9456 12.7389 63.8235 22.1323 63.6739 30.7715C63.6642 31.6448 63.5607 32.5714 63.2904 33.5306Z" fill="#EE5D7C"/>
<path d="M63.6743 30.7714C59.3129 38.1444 46.0572 41.0206 32.1187 37.0938C18.1802 33.1671 8.44834 23.8149 8.57711 15.2495C12.9593 7.8027 26.2149 4.92655 40.0804 8.83274C53.9459 12.7389 63.8238 22.1323 63.6743 30.7714Z" fill="#F281A3"/>
<path d="M40.6064 14.795C40.7757 18.1081 34.8266 21.0516 27.3954 21.427C19.9641 21.8025 13.7607 19.4973 13.5705 16.258C13.4012 12.9448 19.3503 10.0014 26.7816 9.62593C34.2336 9.17667 40.4162 11.5556 40.6064 14.795Z" fill="#F2AEBD"/>
<path d="M45.8869 24.5661C45.595 24.4838 45.4495 25.0004 45.7414 25.0826C46.1271 25.1116 46.2518 24.6689 45.8869 24.5661Z" fill="#EE3686"/>
<path d="M50.5338 21.4944C49.5851 21.2271 49.1693 22.7029 50.118 22.9702C51.0667 23.2374 51.4825 21.7617 50.5338 21.4944Z" fill="#EE3686"/>
<path d="M37.0299 26.3713C36.0812 26.1041 35.6654 27.5799 36.6141 27.8471C37.615 28.2087 38.0515 26.6592 37.0299 26.3713Z" fill="#EE3686"/>
<path d="M24.0946 25.0368L24.0217 25.0163C23.7298 24.934 23.5842 25.4506 23.8761 25.5328L23.9491 25.5533C24.241 25.6356 24.3865 25.1191 24.0946 25.0368Z" fill="#EE3686"/>
<path d="M36.9112 21.4797C36.8382 21.4592 36.9112 21.4797 36.9112 21.4797C36.6817 21.1761 36.2128 21.4423 36.3694 21.7253C36.4946 21.8402 36.5467 21.9346 36.7657 21.9962C37.1306 22.099 37.2761 21.5825 36.9112 21.4797Z" fill="#EE3686"/>
<path d="M43.2931 12.5255C43.0012 12.4433 42.8557 12.9598 43.1476 13.0421C43.4395 13.1243 43.5851 12.6078 43.2931 12.5255Z" fill="#EE3686"/>
<path d="M27.2957 28.4877L27.0768 28.426C26.1281 28.1588 25.6915 29.7083 26.6402 29.9756L26.8591 30.0373C27.9016 30.2513 28.3173 28.7755 27.2957 28.4877Z" fill="#EE3686"/>
<path d="M13.1215 16.4503C12.8189 16.1262 12.3395 16.1504 12.0166 16.4577C11.8291 16.5641 11.6938 16.7649 11.6314 16.9863C11.5067 17.429 11.7884 17.827 12.1533 17.9298C12.5182 18.0326 12.8932 17.8197 13.0701 17.4713C13.4452 17.2583 13.3718 16.6801 13.1215 16.4503Z" fill="#EE3686"/>
<path d="M44.4576 34.1187C43.5089 33.8514 43.0932 35.3272 44.0419 35.5944C45.0635 35.8823 45.4793 34.4065 44.4576 34.1187Z" fill="#EE3686"/>
</g>
<defs>
<clipPath id="clip0_1_1516">
<rect width="58" height="45" fill="white" transform="translate(12.2031 0.979248) rotate(15.7336)"/>
</clipPath>
</defs>
</svg>
