<svg width="64" height="57" viewBox="0 0 64 57" fill="none" xmlns="http://www.w3.org/2000/svg">
<g clip-path="url(#clip0_1_1462)">
<path d="M56.9304 22.284C60.3427 30.055 52.5587 40.9769 39.5454 46.6912C26.4433 52.371 13.1345 50.7112 9.74922 43.0019C9.55964 42.5702 9.43174 42.1113 9.33092 41.7142C7.23786 34.0996 14.888 24.0457 27.223 18.6292C39.5579 13.2128 52.1371 14.3837 56.3542 21.1393C56.4896 21.4476 56.7408 21.8523 56.9304 22.284Z" fill="#F7AD1A"/>
<path d="M56.2664 21.1047C56.6547 22.9941 55.9207 25.0084 55.5614 27.3732C55.202 29.738 54.1868 31.9494 51.7198 33.0327C50.4863 33.5743 49.3461 34.6635 48.6497 35.9257C47.5532 37.9521 45.4338 39.3242 43.2089 39.7862C41.2579 40.2015 39.2768 41.2186 37.6973 42.6478C35.0815 44.8999 32.3557 45.729 29.2313 45.4825C26.4077 45.2511 23.7044 45.6289 21.4029 46.4188C18.0258 47.6075 15.5798 47.0631 13.2088 45.0144C11.7646 43.7358 10.2016 43.0244 9.27029 41.7413C7.17723 34.1266 14.8274 24.0727 27.1624 18.6563C39.4702 13.1782 52.0494 14.3491 56.2664 21.1047Z" fill="#EE8034"/>
<path d="M55.1966 18.3368C56.1444 20.4954 55.218 22.7414 54.809 25.4958C54.4496 27.8606 53.4344 30.0721 50.9674 31.1553C49.7339 31.697 48.5937 32.7862 47.8973 34.0484C46.7392 36.1018 44.6814 37.4468 42.4565 37.9088C40.5055 38.3242 38.5244 39.3412 36.9449 40.7704C34.3291 43.0226 31.6034 43.8517 28.4789 43.6052C25.6553 43.3737 22.9521 43.7515 20.6776 44.6031C17.2388 45.8189 14.7657 45.2128 12.3948 43.1641C10.7188 41.693 8.80078 40.8432 8.0154 39.0547C5.09053 32.3938 13.2808 22.397 26.2941 16.6827C39.3075 10.9683 52.2717 11.6759 55.1966 18.3368Z" fill="#F7ADBB"/>
<path d="M53.6226 14.2469C57.035 22.0179 49.2239 32.8781 36.2105 38.5924C23.1972 44.3068 9.8884 42.647 6.50312 34.9377C6.17814 34.1976 5.9765 33.4033 5.83654 32.582C4.63856 25.1628 12.1353 15.7648 23.8535 10.6192C35.6334 5.44649 47.6259 6.28651 52.3664 12.2237C52.8493 12.8209 53.2977 13.5068 53.6226 14.2469Z" fill="#EE8034"/>
<path d="M52.0728 12.0581C53.2091 19.5043 45.7123 28.9023 33.9324 34.075C22.2142 39.2206 10.2218 38.3806 5.50837 32.5051C4.34498 24.9972 11.8418 15.5992 23.56 10.4536C35.3399 5.2809 47.3323 6.12092 52.0728 12.0581Z" fill="#F7AD1A"/>
<path d="M27.2632 14.1977C29.237 16.3472 26.7989 21.6846 21.9027 26.1152C17.0065 30.5458 11.4512 32.4702 9.50451 30.3824C7.5307 28.2328 9.96879 22.8954 14.865 18.4648C19.7341 13.9726 25.3165 12.1098 27.2632 14.1977Z" fill="#FFC928"/>
<path d="M36.3706 17.8494C36.1239 17.9577 36.3134 18.3895 36.5601 18.2811C36.8414 18.0841 36.6789 17.714 36.3706 17.8494Z" fill="#EE8034"/>
<path d="M37.8416 13.1573C37.0398 13.5094 37.6085 14.8046 38.4103 14.4525C39.2121 14.1004 38.6433 12.8053 37.8416 13.1573Z" fill="#EE8034"/>
<path d="M31.2947 24.0506C30.4929 24.4027 31.0346 25.6362 31.8363 25.2841C32.6381 24.9321 32.1581 23.6715 31.2947 24.0506Z" fill="#EE8034"/>
<path d="M21.6588 30.4161L21.5971 30.4432C21.3504 30.5515 21.54 30.9832 21.7867 30.8749L21.8484 30.8478C22.0951 30.7395 21.9055 30.3078 21.6588 30.4161Z" fill="#EE8034"/>
<path d="M28.473 20.8029C28.4114 20.83 28.473 20.8029 28.473 20.8029C28.1451 20.7262 27.9721 21.17 28.2384 21.2737C28.3888 21.2813 28.4776 21.3159 28.6626 21.2346C28.971 21.0992 28.7814 20.6675 28.473 20.8029Z" fill="#EE8034"/>
<path d="M27.8374 11.1497C27.5907 11.258 27.7802 11.6898 28.0269 11.5814C28.2736 11.4731 28.0841 11.0414 27.8374 11.1497Z" fill="#EE8034"/>
<path d="M25.7942 30.9543L25.6091 31.0355C24.8074 31.3876 25.349 32.6211 26.1508 32.269L26.3358 32.1878C27.1993 31.8086 26.6576 30.5751 25.7942 30.9543Z" fill="#EE8034"/>
<path d="M9.30539 30.7645C8.91577 30.7149 8.59989 31.0007 8.55028 31.3903C8.48109 31.5678 8.50066 31.7799 8.58191 31.965C8.7444 32.335 9.1611 32.4463 9.46948 32.3109C9.77785 32.1755 9.91622 31.8205 9.84249 31.485C9.98086 31.13 9.60626 30.7795 9.30539 30.7645Z" fill="#EE8034"/>
<path d="M40.7439 25.1254C39.9421 25.4774 40.5109 26.7726 41.3126 26.4205C42.149 25.9797 41.6074 24.7462 40.7439 25.1254Z" fill="#EE8034"/>
</g>
<defs>
<clipPath id="clip0_1_1462">
<rect width="51.7316" height="39.5397" fill="white" transform="translate(0 20.7991) rotate(-23.7069)"/>
</clipPath>
</defs>
</svg>
