<svg width="69" height="61" viewBox="0 0 69 61" fill="none" xmlns="http://www.w3.org/2000/svg">
<g clip-path="url(#clip0_1_1534)">
<path d="M63.6637 26.5246C66.6053 35.7251 56.6376 47.1213 41.4 51.9929C26.0669 56.8147 11.3368 53.3148 8.41857 44.1873C8.25515 43.6762 8.16395 43.142 8.09609 42.6807C6.61568 33.8179 16.3347 23.3866 30.7778 18.7689C45.221 14.1512 59.1889 17.0095 63.148 25.1603C63.2647 25.5254 63.5003 26.0135 63.6637 26.5246Z" fill="#F281A3"/>
<path d="M63.0526 25.1104C63.273 27.2935 62.2212 29.4809 61.5495 32.1102C60.8777 34.7394 59.4882 37.1153 56.5996 38.0389C55.1552 38.5006 53.7533 39.5927 52.8291 40.9345C51.3695 43.0913 48.8376 44.3837 46.2911 44.6345C44.0567 44.8659 41.7203 45.7739 39.7873 47.1967C36.5989 49.4234 33.4491 50.028 29.9746 49.3682C26.8357 48.762 23.7625 48.8593 21.0927 49.4714C17.1719 50.403 14.4918 49.4892 12.067 46.8842C10.5934 45.2627 8.92214 44.2678 8.02412 42.7038C6.54371 33.841 16.2627 23.4097 30.7059 18.792C45.1257 14.1013 59.0936 16.9596 63.0526 25.1104Z" fill="#EE5D7C"/>
<path d="M62.1696 21.8513C62.9867 24.407 61.6927 26.8328 60.9211 29.8965C60.2493 32.5257 58.8598 34.9016 55.9712 35.8251C54.5268 36.2869 53.1249 37.379 52.2007 38.7208C50.6689 40.9007 48.2092 42.17 45.6626 42.4207C43.4283 42.6522 41.0919 43.5602 39.1589 44.983C35.9705 47.2096 32.8207 47.8143 29.3462 47.1544C26.2073 46.5483 23.1341 46.6456 20.4876 47.3307C16.4946 48.2854 13.7912 47.2986 11.3663 44.6935C9.65494 42.8262 7.60146 41.6316 6.92444 39.514C4.40313 31.6279 14.721 21.327 29.9586 16.4553C45.1961 11.5837 59.6483 13.9652 62.1696 21.8513Z" fill="#AAD7D4"/>
<path d="M60.5826 16.886C63.5241 26.0865 53.5331 37.4096 38.2955 42.2813C22.9858 47.176 8.25561 43.6761 5.33742 34.5487C5.05728 33.6724 4.92156 32.75 4.85806 31.8045C4.40767 23.1758 13.8801 13.4672 27.6011 9.08035C41.3222 4.69353 54.7422 7.08311 59.3811 14.3727C59.8545 15.1067 60.2791 15.9367 60.5826 16.886Z" fill="#EE5D7C"/>
<path d="M59.3813 14.3727C59.8084 22.9284 50.3359 32.637 36.5427 37.0469C22.7495 41.4568 9.47389 39.0211 4.85831 31.8045C4.40792 23.1757 13.8804 13.4671 27.6014 9.08031C41.3224 4.6935 54.7424 7.08308 59.3813 14.3727Z" fill="#F281A3"/>
<path d="M31.3278 13.7644C33.296 16.4349 29.956 22.1708 23.9636 26.5817C17.9713 30.9925 11.525 32.4901 9.5802 29.8925C7.61202 27.2219 10.952 21.486 16.9444 17.0752C22.9134 12.5913 29.383 11.1668 31.3278 13.7644Z" fill="#F2AEBD"/>
<path d="M41.1209 19.0032C40.8321 19.0956 40.9955 19.6067 41.2844 19.5144C41.6221 19.3259 41.482 18.8878 41.1209 19.0032Z" fill="#EE3686"/>
<path d="M43.3037 13.8791C42.3649 14.1793 42.8318 15.6397 43.7706 15.3395C44.7094 15.0394 44.2425 13.579 43.3037 13.8791Z" fill="#EE3686"/>
<path d="M34.7275 25.3938C33.7887 25.6939 34.2556 27.1543 35.1945 26.8542C36.2288 26.604 35.7386 25.0705 34.7275 25.3938Z" fill="#EE3686"/>
<path d="M23.2 31.4133L23.1278 31.4363C22.8389 31.5287 23.0023 32.0398 23.2912 31.9475L23.3634 31.9244C23.6523 31.832 23.4889 31.3209 23.2 31.4133Z" fill="#EE3686"/>
<path d="M31.9311 21.3783C31.8589 21.4014 31.9311 21.3783 31.9311 21.3783C31.5722 21.2516 31.3279 21.7322 31.6146 21.882C31.7823 21.9088 31.8779 21.9588 32.0946 21.8895C32.4556 21.774 32.2922 21.2629 31.9311 21.3783Z" fill="#EE3686"/>
<path d="M32.3182 10.3892C32.0293 10.4816 32.1928 10.9927 32.4816 10.9004C32.7705 10.808 32.6071 10.2969 32.3182 10.3892Z" fill="#EE3686"/>
<path d="M27.7743 32.5262L27.5576 32.5954C26.6188 32.8956 27.1091 34.429 28.0479 34.1289L28.2645 34.0596C29.2522 33.6633 28.7853 32.2029 27.7743 32.5262Z" fill="#EE3686"/>
<path d="M9.31233 30.3C8.88122 30.1964 8.49461 30.481 8.39469 30.9153C8.29695 31.1076 8.29477 31.3497 8.36481 31.5688C8.50488 32.0069 8.95934 32.1835 9.32042 32.0681C9.6815 31.9526 9.87699 31.5682 9.83247 31.18C10.028 30.7956 9.64789 30.3537 9.31233 30.3Z" fill="#EE3686"/>
<path d="M45.1953 27.7615C44.2565 28.0616 44.7234 29.522 45.6622 29.2219C46.6732 28.8986 46.2063 27.4382 45.1953 27.7615Z" fill="#EE3686"/>
</g>
<defs>
<clipPath id="clip0_1_1534">
<rect width="58" height="45" fill="white" transform="translate(0.0146484 17.9001) rotate(-17.7298)"/>
</clipPath>
</defs>
</svg>
