<svg width="24" height="25" viewBox="0 0 24 25" fill="none" xmlns="http://www.w3.org/2000/svg">
<circle cx="12" cy="12.0376" r="12" fill="#E7426A"/>
<path d="M9.37916 11.8176C9.01916 11.8176 8.68916 11.7576 8.38916 11.6376C8.09916 11.5076 7.84916 11.3376 7.63916 11.1276C7.42916 10.9076 7.26416 10.6476 7.14416 10.3476C7.03416 10.0476 6.97916 9.7226 6.97916 9.3726C6.97916 9.0226 7.03416 8.6976 7.14416 8.3976C7.26416 8.0876 7.42916 7.8226 7.63916 7.6026C7.84916 7.3726 8.09916 7.1976 8.38916 7.0776C8.68916 6.9476 9.01916 6.8826 9.37916 6.8826C9.73916 6.8826 10.0692 6.9476 10.3692 7.0776C10.6692 7.1976 10.9242 7.3726 11.1342 7.6026C11.3442 7.8226 11.5092 8.0876 11.6292 8.3976C11.7492 8.6976 11.8092 9.0226 11.8092 9.3726C11.8092 9.7226 11.7492 10.0476 11.6292 10.3476C11.5092 10.6476 11.3442 10.9076 11.1342 11.1276C10.9242 11.3376 10.6692 11.5076 10.3692 11.6376C10.0692 11.7576 9.73916 11.8176 9.37916 11.8176ZM8.43416 17.0376L14.8242 7.0326H15.6492L9.24416 17.0376H8.43416ZM14.5992 17.2176C14.2392 17.2176 13.9092 17.1576 13.6092 17.0376C13.3192 16.9076 13.0692 16.7376 12.8592 16.5276C12.6492 16.3076 12.4842 16.0476 12.3642 15.7476C12.2542 15.4476 12.1992 15.1226 12.1992 14.7726C12.1992 14.4226 12.2542 14.0976 12.3642 13.7976C12.4842 13.4876 12.6492 13.2226 12.8592 13.0026C13.0692 12.7726 13.3192 12.5976 13.6092 12.4776C13.9092 12.3476 14.2392 12.2826 14.5992 12.2826C14.9592 12.2826 15.2842 12.3476 15.5742 12.4776C15.8742 12.5976 16.1292 12.7726 16.3392 13.0026C16.5492 13.2226 16.7142 13.4876 16.8342 13.7976C16.9542 14.0976 17.0142 14.4226 17.0142 14.7726C17.0142 15.1226 16.9542 15.4476 16.8342 15.7476C16.7142 16.0476 16.5492 16.3076 16.3392 16.5276C16.1292 16.7376 15.8742 16.9076 15.5742 17.0376C15.2842 17.1576 14.9592 17.2176 14.5992 17.2176ZM9.37916 11.0676C9.59916 11.0676 9.80416 11.0226 9.99416 10.9326C10.1842 10.8426 10.3442 10.7226 10.4742 10.5726C10.6142 10.4226 10.7192 10.2476 10.7892 10.0476C10.8692 9.8376 10.9092 9.6126 10.9092 9.3726C10.9092 8.8726 10.7642 8.4626 10.4742 8.1426C10.1942 7.8126 9.82916 7.6476 9.37916 7.6476C8.92916 7.6476 8.56416 7.8126 8.28416 8.1426C8.01416 8.4626 7.87916 8.8726 7.87916 9.3726C7.87916 9.8526 8.01416 10.2576 8.28416 10.5876C8.56416 10.9076 8.92916 11.0676 9.37916 11.0676ZM14.5992 16.4676C14.8192 16.4676 15.0242 16.4226 15.2142 16.3326C15.4042 16.2426 15.5642 16.1226 15.6942 15.9726C15.8342 15.8226 15.9392 15.6476 16.0092 15.4476C16.0892 15.2376 16.1292 15.0126 16.1292 14.7726C16.1292 14.2726 15.9842 13.8626 15.6942 13.5426C15.4142 13.2126 15.0492 13.0476 14.5992 13.0476C14.1492 13.0476 13.7842 13.2126 13.5042 13.5426C13.2242 13.8626 13.0842 14.2726 13.0842 14.7726C13.0842 15.0126 13.1192 15.2376 13.1892 15.4476C13.2692 15.6476 13.3742 15.8226 13.5042 15.9726C13.6342 16.1226 13.7892 16.2426 13.9692 16.3326C14.1592 16.4226 14.3692 16.4676 14.5992 16.4676Z" fill="white"/>
</svg>
